
<svg width="686" height="525" viewBox="0 0 686 525" fill="none" xmlns="http://www.w3.org/2000/svg">
<path d="M686 461.151H0V461.503H686V461.151Z" fill="#EBEBEB"/>
<path d="M617.263 483.814H571.822V484.166H617.263V483.814Z" fill="#EBEBEB"/>
<path d="M454.434 487.645H442.511V487.997H454.434V487.645Z" fill="#EBEBEB"/>
<path d="M570.45 470.743H544.121V471.095H570.45V470.743Z" fill="#EBEBEB"/>
<path d="M131.232 473.109H71.9751V473.461H131.232V473.109Z" fill="#EBEBEB"/>
<path d="M152.141 473.109H143.457V473.461H152.141V473.109Z" fill="#EBEBEB"/>
<path d="M308.906 479.053H180.377V479.405H308.906V479.053Z" fill="#EBEBEB"/>
<path d="M325.164 398.331H60.2447C58.1694 398.327 56.1802 397.478 54.714 395.97C53.2478 394.462 52.4243 392.419 52.4243 390.288V7.97225C52.4424 5.85386 53.2739 3.82834 54.7381 2.33564C56.2024 0.842943 58.1812 0.0036289 60.2447 0H325.164C327.242 0 329.235 0.847351 330.704 2.35564C332.173 3.86394 332.998 5.90962 332.998 8.04267V390.288C332.998 392.421 332.173 394.467 330.704 395.975C329.235 397.483 327.242 398.331 325.164 398.331ZM60.2447 0.281706C58.2603 0.285437 56.3585 1.09733 54.9566 2.53918C53.5547 3.98104 52.7673 5.93503 52.7673 7.97225V390.288C52.7673 392.325 53.5547 394.279 54.9566 395.721C56.3585 397.163 58.2603 397.975 60.2447 397.978H325.164C327.15 397.975 329.053 397.163 330.457 395.722C331.861 394.28 332.652 392.326 332.655 390.288V7.97225C332.652 5.93373 331.861 3.97977 330.457 2.53832C329.053 1.09687 327.15 0.285429 325.164 0.281706H60.2447Z" fill="#EBEBEB"/>
<path d="M621.941 398.331H357.008C354.931 398.327 352.941 397.478 351.472 395.971C350.004 394.463 349.177 392.42 349.174 390.288V7.97225C349.195 5.85258 350.03 3.82707 351.496 2.33476C352.963 0.84245 354.943 0.00358933 357.008 0H621.941C624.002 0.00733066 625.978 0.848282 627.439 2.34058C628.9 3.83288 629.73 5.85629 629.748 7.97225V390.288C629.748 392.416 628.926 394.458 627.463 395.965C626 397.472 624.014 398.323 621.941 398.331ZM357.008 0.281706C355.022 0.285429 353.119 1.09687 351.715 2.53832C350.311 3.97977 349.52 5.93373 349.517 7.97225V390.288C349.52 392.326 350.311 394.28 351.715 395.722C353.119 397.163 355.022 397.975 357.008 397.978H621.941C623.927 397.975 625.83 397.163 627.234 395.722C628.638 394.28 629.429 392.326 629.432 390.288V7.97225C629.429 5.93373 628.638 3.97977 627.234 2.53832C625.83 1.09687 623.927 0.285429 621.941 0.281706H357.008Z" fill="#EBEBEB"/>
<path d="M424.62 452.939H395.657L410.886 325.651C411.252 322.992 412.524 320.553 414.475 318.766C416.427 316.979 418.933 315.96 421.547 315.89H547.908L529.386 452.939H424.62Z" fill="#F5F5F5"/>
<path d="M516.462 452.939H545.425L560.654 325.651C560.842 324.427 560.765 323.175 560.429 321.985C560.093 320.795 559.506 319.696 558.71 318.765C557.914 317.833 556.928 317.093 555.823 316.596C554.717 316.099 553.519 315.858 552.312 315.89H542.365C539.749 315.957 537.24 316.974 535.285 318.762C533.331 320.549 532.057 322.99 531.691 325.651L516.462 452.939Z" fill="#F0F0F0"/>
<path d="M505.802 452.798L511.043 391.217C511.163 389.889 511.721 388.642 512.624 387.682C513.526 386.722 514.721 386.106 516.01 385.935L518.177 385.654C519.902 385.429 521.501 384.61 522.712 383.331C523.924 382.051 524.676 380.387 524.845 378.611L525.792 367.343C525.885 366.256 525.757 365.161 525.416 364.127C525.076 363.094 524.529 362.144 523.812 361.339C523.095 360.534 522.222 359.891 521.25 359.45C520.278 359.009 519.227 358.781 518.164 358.779H566.554C567.618 358.779 568.671 359.006 569.645 359.446C570.619 359.886 571.493 360.529 572.211 361.334C572.93 362.14 573.478 363.09 573.82 364.124C574.161 365.159 574.29 366.255 574.196 367.343L573.236 378.611C573.069 380.388 572.317 382.053 571.105 383.333C569.893 384.613 568.293 385.432 566.568 385.654L564.414 385.935C563.12 386.107 561.923 386.727 561.02 387.693C560.116 388.658 559.562 389.912 559.447 391.246L554.192 452.826C554.007 454.99 553.04 457.003 551.481 458.471C549.922 459.939 547.884 460.754 545.768 460.756H497.364C499.485 460.754 501.529 459.935 503.091 458.462C504.653 456.989 505.62 454.968 505.802 452.798Z" fill="#E6E6E6"/>
<path d="M372.608 375.808C372.21 371.144 370.123 366.802 366.761 363.64C363.398 360.477 359.003 358.723 354.442 358.723H396.576C401.137 358.723 405.532 360.477 408.895 363.64C412.258 366.802 414.344 371.144 414.742 375.808L418.858 424.614H376.765L372.608 375.808Z" fill="#E6E6E6"/>
<path d="M335.729 358.723H354.443C359.003 358.723 363.398 360.477 366.761 363.64C370.124 366.802 372.21 371.144 372.608 375.808L376.724 424.614H477.072L481.188 375.808C481.59 371.136 483.685 366.788 487.059 363.624C490.432 360.461 494.839 358.712 499.408 358.723H518.136C519.199 358.724 520.25 358.953 521.222 359.394C522.194 359.834 523.067 360.478 523.784 361.283C524.501 362.088 525.048 363.038 525.389 364.071C525.73 365.105 525.858 366.2 525.764 367.287L524.818 378.555C524.648 380.331 523.896 381.995 522.684 383.274C521.473 384.554 519.874 385.373 518.15 385.597L515.982 385.879C514.689 386.051 513.491 386.671 512.588 387.636C511.685 388.602 511.13 389.856 511.015 391.189L505.774 452.77C505.586 454.935 504.616 456.948 503.054 458.416C501.493 459.883 499.453 460.698 497.337 460.7H356.514C354.399 460.698 352.361 459.883 350.802 458.415C349.243 456.947 348.276 454.933 348.09 452.77L342.836 391.189C342.721 389.856 342.167 388.602 341.263 387.636C340.36 386.671 339.162 386.051 337.869 385.879L335.715 385.597C333.99 385.375 332.389 384.557 331.178 383.277C329.966 381.997 329.214 380.332 329.047 378.555L328.087 367.287C327.993 366.199 328.122 365.102 328.463 364.068C328.805 363.033 329.353 362.083 330.071 361.278C330.79 360.472 331.664 359.829 332.638 359.389C333.612 358.95 334.665 358.723 335.729 358.723Z" fill="#F0F0F0"/>
<path d="M126.924 107.541C126.924 107.541 125.318 96.6529 133.043 89.6807C140.767 82.7085 140.095 78.5533 137.886 78.004C135.677 77.4547 133.646 84.441 130.244 86.3565C130.244 86.3565 130.134 76.4124 133.591 72.7502C137.049 69.088 138.86 59.6509 135.567 59.496C132.274 59.3411 131.945 65.1301 131.259 69.1866C130.573 73.2432 126.924 79.0463 126.924 79.0463C126.924 79.0463 126.21 70.1585 123.974 66.4823C121.737 62.806 127.692 54.4535 125.346 50.7913C123 47.1291 119.035 54.0873 119.364 61.975C119.693 69.8627 124.852 78.2012 123.617 86.3988C123.617 86.3988 121.367 80.652 119.35 80.1309C117.333 79.6097 115.234 75.7926 113.931 74.3841C112.627 72.9756 110.871 77.8631 113.931 82.3986C116.99 86.934 124.852 99.0192 123.617 108.822L126.924 107.541Z" fill="#E6E6E6"/>
<path d="M131.548 102.583L134.086 118.893C134.268 120.079 134.198 121.291 133.881 122.445C133.564 123.6 133.006 124.671 132.248 125.584C131.489 126.497 130.547 127.23 129.485 127.733C128.424 128.237 127.27 128.498 126.101 128.5H123.357C122.188 128.498 121.034 128.237 119.974 127.734C118.913 127.23 117.971 126.497 117.214 125.583C116.456 124.67 115.9 123.599 115.585 122.444C115.269 121.289 115.201 120.078 115.386 118.893L117.992 102.583H131.548Z" fill="#E6E6E6"/>
<path d="M93.2546 131.922L272.218 131.922V122.485L93.2546 122.485V131.922Z" fill="#E0E0E0"/>
<path d="M256.084 122.471H263.973V87.6805H256.084V122.471Z" fill="#EBEBEB"/>
<path d="M217.969 122.471H225.858V87.6805H217.969V122.471Z" fill="#EBEBEB"/>
<path d="M168.931 121.101L176.705 122.477L182.462 88.1919L174.687 86.8161L168.931 121.101Z" fill="#EBEBEB"/>
<path d="M246.315 122.485H254.204V92.2724H246.315V122.485Z" fill="#EBEBEB"/>
<path d="M228.192 122.485H236.081V92.2724H228.192V122.485Z" fill="#EBEBEB"/>
<path d="M182.462 122.485H190.351V92.2724H182.462V122.485Z" fill="#EBEBEB"/>
<path d="M201.243 120.701L208.944 122.458L215.329 92.9651L207.627 91.208L201.243 120.701Z" fill="#EBEBEB"/>
<path d="M239.51 122.485H243.447V85.9622H239.51V122.485Z" fill="#EBEBEB"/>
<path d="M192.615 122.485H196.552V85.9622H192.615V122.485Z" fill="#EBEBEB"/>
<path d="M272.219 192.94H93.2549V202.377H272.219V192.94Z" fill="#E0E0E0"/>
<path d="M109.376 158.149H101.487V192.94H109.376V158.149Z" fill="#EBEBEB"/>
<path d="M147.504 158.149H139.615V192.94H147.504V158.149Z" fill="#EBEBEB"/>
<path d="M190.778 157.276L183.003 158.652L188.76 192.937L196.534 191.561L190.778 157.276Z" fill="#EBEBEB"/>
<path d="M119.144 162.741H111.255V192.954H119.144V162.741Z" fill="#EBEBEB"/>
<path d="M137.269 162.741H129.38V192.954H137.269V162.741Z" fill="#EBEBEB"/>
<path d="M183.011 162.741H175.122V192.954H183.011V162.741Z" fill="#EBEBEB"/>
<path d="M157.864 161.693L150.163 163.45L156.548 192.943L164.249 191.186L157.864 161.693Z" fill="#EBEBEB"/>
<path d="M125.964 156.417H122.026V192.94H125.964V156.417Z" fill="#EBEBEB"/>
<path d="M172.859 156.417H168.921V192.94H172.859V156.417Z" fill="#EBEBEB"/>
<path d="M255.041 165.403H216.625V192.63H255.041V165.403Z" fill="#EBEBEB"/>
<path d="M562.972 97.4839H409.048V272.254H562.972V97.4839Z" fill="#E0E0E0"/>
<path d="M567.885 97.4839H408.239V272.254H567.885V97.4839Z" fill="#F0F0F0"/>
<path d="M561.134 103.062H414.742V264.225H561.134V103.062Z" fill="white"/>
<path d="M561.134 103.062H556.895V264.225H561.134V103.062Z" fill="#E0E0E0"/>
<path d="M414.358 218.941V223.293H557.348V218.941H414.358Z" fill="#E0E0E0"/>
<path d="M561.134 211.659H412.464V218.955H561.134V211.659Z" fill="#F0F0F0"/>
<path d="M343 524.76C489.917 524.76 609.017 517.621 609.017 508.815C609.017 500.009 489.917 492.871 343 492.871C196.083 492.871 76.9829 500.009 76.9829 508.815C76.9829 517.621 196.083 524.76 343 524.76Z" fill="#F5F5F5"/>
<path d="M448.877 485.589C449.072 485.158 449.164 484.686 449.145 484.211C449.126 483.737 448.997 483.274 448.769 482.86C448.541 482.447 448.22 482.096 447.834 481.835C447.447 481.575 447.005 481.413 446.545 481.363C446.961 480.123 446.994 478.782 446.64 477.522C446.287 476.261 445.564 475.144 444.569 474.32C444.335 474.097 444.036 473.959 443.719 473.926C443.376 473.962 443.054 474.11 442.799 474.349L437.311 478.349C436.877 478.626 436.511 479.002 436.241 479.447C435.13 481.659 439.122 484.49 437.476 486.307C437.01 486.828 436.255 486.941 435.665 487.321C434.362 488.152 434.211 489.969 433.607 491.406C433.003 492.843 430.863 493.969 430.095 492.631C430.685 491.223 428.901 490.068 427.433 489.899C425.965 489.73 424.456 489.631 423.646 488.237C421.575 490.082 416.937 484.898 417.047 482.814C416.229 482.965 415.477 483.375 414.896 483.986C414.316 484.597 413.936 485.379 413.809 486.222C413.571 487.948 413.511 489.695 413.631 491.434C413.631 494.814 412.519 498.124 412.574 501.505C412.574 504.139 413.617 507.069 415.963 508.125C417.133 508.549 418.375 508.721 419.613 508.632L446.353 508.449C446.994 508.498 447.638 508.392 448.233 508.139C449.44 507.491 449.687 505.857 449.797 504.463L451.237 486.575L448.877 485.589Z" fill="#407BFF"/>
<path opacity="0.3" d="M448.877 485.589C449.072 485.158 449.164 484.686 449.145 484.211C449.126 483.737 448.997 483.274 448.769 482.86C448.541 482.447 448.22 482.096 447.834 481.835C447.447 481.575 447.005 481.413 446.545 481.363C446.961 480.123 446.994 478.782 446.64 477.522C446.287 476.261 445.564 475.144 444.569 474.32C444.335 474.097 444.036 473.959 443.719 473.926C443.376 473.962 443.054 474.11 442.799 474.349L437.311 478.349C436.877 478.626 436.511 479.002 436.241 479.447C435.13 481.659 439.122 484.49 437.476 486.307C437.01 486.828 436.255 486.941 435.665 487.321C434.362 488.152 434.211 489.969 433.607 491.406C433.003 492.843 430.863 493.969 430.095 492.631C430.685 491.223 428.901 490.068 427.433 489.899C425.965 489.73 424.456 489.631 423.646 488.237C421.575 490.082 416.937 484.898 417.047 482.814C416.229 482.965 415.477 483.375 414.896 483.986C414.316 484.597 413.936 485.379 413.809 486.222C413.571 487.948 413.511 489.695 413.631 491.434C413.631 494.814 412.519 498.124 412.574 501.505C412.574 504.139 413.617 507.069 415.963 508.125C417.133 508.549 418.375 508.721 419.613 508.632L446.353 508.449C446.994 508.498 447.638 508.392 448.233 508.139C449.44 507.491 449.687 505.857 449.797 504.463L451.237 486.575L448.877 485.589Z" fill="white"/>
<path d="M450.428 456.573H408.938L409.281 460.883L409.528 463.954L410.16 471.94L410.516 476.546L410.996 482.659L411.202 485.279L411.271 486.053L411.518 489.138L411.847 493.364L412.053 495.984L412.259 498.646L412.506 501.73L412.698 504.068L412.904 506.688L412.986 507.829H451.059L451.155 506.688L451.361 504.068L451.539 501.716L451.786 498.632L452.006 495.984L452.211 493.364L452.541 489.138L452.788 486.068V485.293L452.993 482.673L453.474 476.56L453.844 471.968L454.461 463.968L454.708 460.897L455.051 456.587L450.428 456.573ZM452.925 459.39L452.129 458.573H452.993L452.925 459.39ZM452.76 461.996L452.692 463.038L448.973 466.841L444.707 462.475L448.521 458.559H449.426L452.76 461.996ZM451.69 475.63L448.946 478.447L444.679 474.067L448.946 469.715L451.882 472.729L451.69 475.63ZM412.204 472.701L415.154 469.686L419.407 474.039L415.154 478.419L412.41 475.602L412.204 472.701ZM447.601 468.264L443.335 472.63L439.081 468.264L443.335 463.883L447.601 468.264ZM440.906 458.559H445.777L443.335 461.066L440.906 458.559ZM441.949 474.053L437.696 478.433L433.442 474.053L437.696 469.7L441.949 474.053ZM427.803 479.842L432.07 475.475L436.324 479.842L432.07 484.222L427.803 479.842ZM430.685 485.631L426.418 489.997L422.178 485.631L426.431 481.264L430.685 485.631ZM437.696 481.264L441.949 485.631L437.696 489.997L433.442 485.631L437.696 481.264ZM432.07 472.644L427.803 468.278L432.07 463.897L436.324 468.278L432.07 472.644ZM430.698 474.053L426.445 478.433L422.192 474.053L426.445 469.7L430.698 474.053ZM420.806 472.644L416.553 468.278L420.806 463.897L425.059 468.278L420.806 472.644ZM420.806 475.461L425.059 479.828L420.806 484.208L416.553 479.828L420.806 475.461ZM425.059 491.406L420.806 495.772L416.553 491.406L420.806 487.039L425.059 491.406ZM426.431 492.814L430.698 497.195L426.445 501.561L422.192 497.195L426.431 492.814ZM427.803 491.406L432.07 487.039L436.324 491.406L432.07 495.772L427.803 491.406ZM437.696 492.814L441.949 497.195L437.696 501.561L433.442 497.195L437.696 492.814ZM443.293 498.617L447.56 502.998L444.816 505.815H441.784L439.04 502.998L443.293 498.617ZM439.04 491.42L443.293 487.054L447.56 491.42L443.293 495.8L439.04 491.42ZM439.04 479.842L443.293 475.475L447.56 479.842L443.293 484.222L439.04 479.842ZM441.908 462.489L437.654 466.855L433.401 462.489L437.215 458.573H438.107L441.908 462.489ZM432.029 461.08L429.587 458.573H434.458L432.029 461.08ZM430.657 462.489L426.404 466.855L422.151 462.489L425.951 458.573H426.857L430.657 462.489ZM423.194 458.573L420.765 461.08L418.337 458.573H423.194ZM415.579 458.573L419.379 462.489L415.126 466.855L411.422 463.052L411.339 462.01L414.673 458.573H415.579ZM411.929 458.573L411.134 459.39V458.573H411.929ZM411.669 466.137L413.754 468.278L411.971 470.095L411.669 466.137ZM412.821 480.8L412.657 478.729L413.754 479.856L412.821 480.814V480.8ZM413.027 483.419L415.126 481.264L419.379 485.631L415.126 489.997L413.411 488.237L413.027 483.419ZM413.658 491.519V491.321L413.754 491.42L413.658 491.519ZM414.399 500.829L413.864 494.124L415.126 492.828L419.379 497.209L415.126 501.575L414.399 500.829ZM414.797 505.829L414.715 504.829L415.126 504.406L416.498 505.815L414.797 505.829ZM416.512 503.012L420.765 498.632L425.018 503.012L422.274 505.829H419.27L416.512 503.012ZM425.018 505.829L426.39 504.421L427.762 505.829H425.018ZM430.506 505.829L427.762 503.012L432.029 498.632L436.282 503.012L433.538 505.829H430.506ZM436.269 505.829L437.641 504.421L439.013 505.829H436.269ZM449.248 505.829H447.547L448.919 504.421L449.33 504.843L449.248 505.829ZM449.646 500.829L448.919 501.575L444.665 497.209L448.932 492.828L450.195 494.124L449.646 500.829ZM450.4 491.307V491.519L450.318 491.42L450.428 491.307H450.4ZM450.647 488.237L448.919 489.997L444.652 485.631L448.919 481.264L451.018 483.419L450.647 488.237ZM451.224 480.8L450.291 479.842L451.388 478.729L451.224 480.8ZM452.39 466.123L452.074 470.109L450.291 468.278L452.39 466.123Z" fill="#407BFF"/>
<g opacity="0.6">
<path d="M450.428 456.573H408.938L409.281 460.883L409.528 463.954L410.16 471.94L410.516 476.546L410.996 482.659L411.202 485.279L411.271 486.053L411.518 489.138L411.847 493.364L412.053 495.984L412.259 498.646L412.506 501.73L412.698 504.068L412.904 506.688L412.986 507.829H451.059L451.155 506.688L451.361 504.068L451.539 501.716L451.786 498.632L452.006 495.984L452.211 493.364L452.541 489.138L452.788 486.068V485.293L452.993 482.673L453.474 476.56L453.844 471.968L454.461 463.968L454.708 460.897L455.051 456.587L450.428 456.573ZM452.925 459.39L452.129 458.573H452.993L452.925 459.39ZM452.76 461.996L452.692 463.038L448.973 466.841L444.707 462.475L448.521 458.559H449.426L452.76 461.996ZM451.69 475.63L448.946 478.447L444.679 474.067L448.946 469.715L451.882 472.729L451.69 475.63ZM412.204 472.701L415.154 469.686L419.407 474.039L415.154 478.419L412.41 475.602L412.204 472.701ZM447.601 468.264L443.335 472.63L439.081 468.264L443.335 463.883L447.601 468.264ZM440.906 458.559H445.777L443.335 461.066L440.906 458.559ZM441.949 474.053L437.696 478.433L433.442 474.053L437.696 469.7L441.949 474.053ZM427.803 479.842L432.07 475.475L436.324 479.842L432.07 484.222L427.803 479.842ZM430.685 485.631L426.418 489.997L422.178 485.631L426.431 481.264L430.685 485.631ZM437.696 481.264L441.949 485.631L437.696 489.997L433.442 485.631L437.696 481.264ZM432.07 472.644L427.803 468.278L432.07 463.897L436.324 468.278L432.07 472.644ZM430.698 474.053L426.445 478.433L422.192 474.053L426.445 469.7L430.698 474.053ZM420.806 472.644L416.553 468.278L420.806 463.897L425.059 468.278L420.806 472.644ZM420.806 475.461L425.059 479.828L420.806 484.208L416.553 479.828L420.806 475.461ZM425.059 491.406L420.806 495.772L416.553 491.406L420.806 487.039L425.059 491.406ZM426.431 492.814L430.698 497.195L426.445 501.561L422.192 497.195L426.431 492.814ZM427.803 491.406L432.07 487.039L436.324 491.406L432.07 495.772L427.803 491.406ZM437.696 492.814L441.949 497.195L437.696 501.561L433.442 497.195L437.696 492.814ZM443.293 498.617L447.56 502.998L444.816 505.815H441.784L439.04 502.998L443.293 498.617ZM439.04 491.42L443.293 487.054L447.56 491.42L443.293 495.8L439.04 491.42ZM439.04 479.842L443.293 475.475L447.56 479.842L443.293 484.222L439.04 479.842ZM441.908 462.489L437.654 466.855L433.401 462.489L437.215 458.573H438.107L441.908 462.489ZM432.029 461.08L429.587 458.573H434.458L432.029 461.08ZM430.657 462.489L426.404 466.855L422.151 462.489L425.951 458.573H426.857L430.657 462.489ZM423.194 458.573L420.765 461.08L418.337 458.573H423.194ZM415.579 458.573L419.379 462.489L415.126 466.855L411.422 463.052L411.339 462.01L414.673 458.573H415.579ZM411.929 458.573L411.134 459.39V458.573H411.929ZM411.669 466.137L413.754 468.278L411.971 470.095L411.669 466.137ZM412.821 480.8L412.657 478.729L413.754 479.856L412.821 480.814V480.8ZM413.027 483.419L415.126 481.264L419.379 485.631L415.126 489.997L413.411 488.237L413.027 483.419ZM413.658 491.519V491.321L413.754 491.42L413.658 491.519ZM414.399 500.829L413.864 494.124L415.126 492.828L419.379 497.209L415.126 501.575L414.399 500.829ZM414.797 505.829L414.715 504.829L415.126 504.406L416.498 505.815L414.797 505.829ZM416.512 503.012L420.765 498.632L425.018 503.012L422.274 505.829H419.27L416.512 503.012ZM425.018 505.829L426.39 504.421L427.762 505.829H425.018ZM430.506 505.829L427.762 503.012L432.029 498.632L436.282 503.012L433.538 505.829H430.506ZM436.269 505.829L437.641 504.421L439.013 505.829H436.269ZM449.248 505.829H447.547L448.919 504.421L449.33 504.843L449.248 505.829ZM449.646 500.829L448.919 501.575L444.665 497.209L448.932 492.828L450.195 494.124L449.646 500.829ZM450.4 491.307V491.519L450.318 491.42L450.428 491.307H450.4ZM450.647 488.237L448.919 489.997L444.652 485.631L448.919 481.264L451.018 483.419L450.647 488.237ZM451.224 480.8L450.291 479.842L451.388 478.729L451.224 480.8ZM452.39 466.123L452.074 470.109L450.291 468.278L452.39 466.123Z" fill="white"/>
</g>
<path d="M408.527 460.362H455.504C456.747 460.362 457.754 459.328 457.754 458.052V457.094C457.754 455.818 456.747 454.784 455.504 454.784H408.527C407.284 454.784 406.277 455.818 406.277 457.094V458.052C406.277 459.328 407.284 460.362 408.527 460.362Z" fill="#407BFF"/>
<path d="M451.799 504.829H412.245C411.002 504.829 409.995 505.863 409.995 507.139V508.097C409.995 509.373 411.002 510.407 412.245 510.407H451.799C453.042 510.407 454.05 509.373 454.05 508.097V507.139C454.05 505.863 453.042 504.829 451.799 504.829Z" fill="#407BFF"/>
<path d="M589.164 54.2422H248.826C245.697 54.2422 243.16 56.8467 243.16 60.0594V312.115C243.16 315.328 245.697 317.932 248.826 317.932H589.164C592.294 317.932 594.831 315.328 594.831 312.115V60.0594C594.831 56.8467 592.294 54.2422 589.164 54.2422Z" fill="#407BFF"/>
<path opacity="0.4" d="M594.831 68.4965H243.16V306.509H594.831V68.4965Z" fill="black"/>
<path d="M586.598 64.5808C588.425 64.5808 589.905 63.0611 589.905 61.1863C589.905 59.3115 588.425 57.7917 586.598 57.7917C584.772 57.7917 583.292 59.3115 583.292 61.1863C583.292 63.0611 584.772 64.5808 586.598 64.5808Z" fill="white"/>
<path d="M575.445 64.5808C577.271 64.5808 578.751 63.0611 578.751 61.1863C578.751 59.3115 577.271 57.7917 575.445 57.7917C573.619 57.7917 572.138 59.3115 572.138 61.1863C572.138 63.0611 573.619 64.5808 575.445 64.5808Z" fill="white"/>
<path d="M564.29 64.5808C566.116 64.5808 567.596 63.0611 567.596 61.1863C567.596 59.3115 566.116 57.7917 564.29 57.7917C562.464 57.7917 560.983 59.3115 560.983 61.1863C560.983 63.0611 562.464 64.5808 564.29 64.5808Z" fill="white"/>
<path d="M358.737 192.193H244.463V294.987H358.737V192.193Z" fill="#263238"/>
<path d="M358.737 87.1313H244.463V189.925H358.737V87.1313Z" fill="#263238"/>
<path d="M475.632 87.1313H361.358V189.925H475.632V87.1313Z" fill="#407BFF"/>
<path d="M592.539 87.1313H478.265V189.925H592.539V87.1313Z" fill="white"/>
<path d="M475.632 192.193H361.358V294.987H475.632V192.193Z" fill="#263238"/>
<path d="M592.539 192.193H478.265V294.987H592.539V192.193Z" fill="#407BFF"/>
<path d="M572.961 189.925L575.554 167.502C575.899 164.606 575.186 161.681 573.551 159.295C571.916 156.909 569.476 155.23 566.704 154.586C537.042 147.811 519.343 154.515 519.343 154.515C512.705 165.545 507.576 177.46 504.1 189.925H572.961Z" fill="#263238"/>
<path d="M551.544 153.614C554.086 153.327 556.648 153.275 559.199 153.459C552.751 147.923 555.948 133.866 558.568 126.232L538.633 137.796C538.864 138.774 539.029 139.767 539.127 140.768C539.378 142.557 539.17 144.383 538.523 146.064C537.348 148.223 535.734 150.096 533.79 151.557L541.775 155.205L551.544 153.614Z" fill="#E4897B"/>
<path opacity="0.2" d="M554 133.584C553.204 142.965 543.381 145.543 538.565 146.064C539.211 144.383 539.419 142.557 539.169 140.768L554 133.584Z" fill="black"/>
<path d="M527.781 105.203C527.781 105.203 526.217 118.541 533.763 124.161C541.309 129.781 539.676 97.1882 539.676 97.1882L527.781 105.203Z" fill="#263238"/>
<path d="M557.032 133.387C556.637 134.212 556.178 135.004 555.66 135.754C554.189 137.992 552.085 139.713 549.632 140.685C547.179 141.657 544.494 141.834 541.94 141.191C541.578 141.109 541.22 141.005 540.87 140.881C537.505 139.8 534.65 137.476 532.857 134.359C532.857 134.261 532.734 134.134 532.665 134.035C532.418 133.584 532.199 133.12 531.979 132.627C531.557 131.59 531.186 130.533 530.868 129.458C528.124 120.401 528.453 105.259 536.644 100.062C543.161 95.836 553.465 97.2446 557.567 103.963C558.747 105.865 557.43 110.837 557.635 113.076C558.61 122.175 559.597 127.964 557.032 133.387Z" fill="#E4897B"/>
<path d="M542.818 118.654C543.01 119.471 542.64 120.246 542.091 120.344C541.542 120.443 541.007 119.823 540.87 118.936C540.733 118.048 541.048 117.33 541.583 117.246C542.118 117.161 542.667 117.809 542.818 118.654Z" fill="#263238"/>
<path d="M533.543 120.274C533.735 121.105 533.351 121.88 532.816 121.964C532.281 122.049 531.746 121.443 531.595 120.556C531.444 119.668 531.787 118.95 532.308 118.865C532.83 118.781 533.406 119.485 533.543 120.274Z" fill="#263238"/>
<path d="M536.562 120.175C536.007 122.922 535.084 125.577 533.818 128.063C534.457 128.384 535.157 128.556 535.868 128.568C536.579 128.58 537.285 128.432 537.934 128.134L536.562 120.175Z" fill="#DE5753"/>
<path d="M545.178 115.062C545.091 115.091 544.999 115.095 544.91 115.076C544.821 115.056 544.738 115.012 544.67 114.95C544.233 114.512 543.704 114.184 543.123 113.991C542.543 113.798 541.927 113.745 541.323 113.837C541.197 113.867 541.065 113.845 540.955 113.777C540.845 113.709 540.765 113.599 540.733 113.471C540.717 113.408 540.713 113.342 540.722 113.278C540.732 113.213 540.754 113.151 540.787 113.096C540.82 113.041 540.865 112.993 540.917 112.956C540.969 112.918 541.027 112.892 541.09 112.879C541.857 112.744 542.644 112.801 543.385 113.046C544.126 113.292 544.797 113.718 545.343 114.288C545.432 114.382 545.481 114.508 545.481 114.64C545.481 114.771 545.432 114.897 545.343 114.992C545.292 115.024 545.236 115.048 545.178 115.062Z" fill="#263238"/>
<path d="M529.016 117.696C528.928 117.748 528.828 117.772 528.727 117.767C528.666 117.749 528.608 117.719 528.558 117.678C528.508 117.637 528.466 117.586 528.436 117.528C528.405 117.47 528.386 117.407 528.379 117.341C528.373 117.276 528.379 117.21 528.398 117.147C528.597 116.375 528.974 115.664 529.497 115.073C530.02 114.482 530.673 114.029 531.403 113.752C531.527 113.717 531.659 113.733 531.771 113.796C531.884 113.859 531.968 113.965 532.007 114.091C532.041 114.217 532.026 114.353 531.964 114.469C531.903 114.585 531.8 114.671 531.677 114.71C531.11 114.947 530.604 115.316 530.199 115.787C529.794 116.259 529.502 116.821 529.345 117.429C529.311 117.494 529.264 117.552 529.208 117.598C529.151 117.644 529.086 117.678 529.016 117.696Z" fill="#263238"/>
<path d="M561.477 106.668C561.477 106.386 561.587 106.104 561.628 105.794C563 95.8078 548.745 89.9343 535.876 91.1738C530.264 91.7231 531.554 101.569 531.554 101.569C531.554 101.569 528.371 101.569 526.93 103.555C524.392 107.076 528.302 114.823 528.302 114.823C526.34 103.555 532.021 102.935 532.021 102.935C532.021 102.935 533.393 107.301 535.931 106.907C538.469 106.513 544.89 100.132 548.046 100.893C549.042 101.109 549.964 101.592 550.721 102.292C551.477 102.992 552.04 103.884 552.354 104.879C552.399 105.878 552.237 106.877 551.877 107.807C551.518 108.737 550.969 109.578 550.268 110.273C547.524 113.386 552.134 120.034 555.303 122.063C555.303 122.063 555.194 120.387 556.607 120.654C558.02 120.922 558.692 129.641 556.497 134.134C556.497 134.134 560.105 129.908 561.313 120.443C561.995 115.882 562.051 111.245 561.477 106.668Z" fill="#263238"/>
<path d="M539.964 132.26C541.165 132.233 542.343 131.911 543.398 131.32C544.453 130.73 545.355 129.888 546.028 128.866C546.048 128.837 546.061 128.804 546.068 128.769C546.074 128.734 546.074 128.699 546.066 128.664C546.058 128.63 546.044 128.597 546.023 128.569C546.002 128.541 545.976 128.517 545.946 128.5C545.919 128.481 545.888 128.468 545.857 128.462C545.825 128.455 545.792 128.455 545.76 128.462C545.728 128.468 545.698 128.481 545.671 128.5C545.644 128.518 545.621 128.542 545.603 128.57C544.961 129.505 544.116 130.275 543.135 130.817C542.154 131.36 541.064 131.661 539.95 131.697C539.883 131.697 539.819 131.723 539.771 131.77C539.722 131.818 539.693 131.882 539.689 131.951C539.689 132.019 539.715 132.085 539.761 132.135C539.807 132.185 539.87 132.215 539.936 132.218L539.964 132.26Z" fill="#263238"/>
<path d="M563.426 120.795C562.696 123.327 561.019 125.459 558.761 126.725C555.756 128.387 553.52 125.809 553.712 122.499C553.932 119.556 555.702 115.048 559.036 114.795C562.37 114.541 564.277 117.668 563.426 120.795Z" fill="#E4897B"/>
<path opacity="0.1" d="M541.94 141.191C541.578 141.109 541.22 141.005 540.87 140.881C537.505 139.8 534.65 137.476 532.857 134.359C535.245 134.092 540.225 133.585 541.24 134.035C542.256 134.486 542.077 139.106 541.94 141.191Z" fill="black"/>
<path d="M526.876 189.925H533.558L540.829 162.403L547.442 155.205H535.863L538.565 162.135L526.876 189.925Z" fill="#407BFF"/>
<path d="M502.275 184.784L501.85 189.925H512.702C521.991 167.29 530.621 150.881 530.621 150.881L519.343 154.515C493.275 162.346 491.08 179.869 495.525 184.348C499.97 188.827 502.275 184.784 502.275 184.784Z" fill="#407BFF"/>
<path opacity="0.5" d="M502.275 184.784L501.85 189.925H512.702C521.991 167.29 530.621 150.881 530.621 150.881L519.343 154.515C493.275 162.346 491.08 179.869 495.525 184.348C499.97 188.827 502.275 184.784 502.275 184.784Z" fill="white"/>
<path d="M510.384 189.925H512.909C521.36 171.234 535.396 149.304 535.396 149.304C529.642 149.29 523.942 150.433 518.616 152.67L521.511 160.952L514.528 162.361L510.384 189.925Z" fill="#407BFF"/>
<path opacity="0.4" d="M510.384 189.925H512.909C521.36 171.234 535.396 149.304 535.396 149.304C529.642 149.29 523.942 150.433 518.616 152.67L521.511 160.952L514.528 162.361L510.384 189.925Z" fill="white"/>
<path opacity="0.2" d="M507.448 189.925C508.885 186.755 509.651 183.308 509.698 179.812L502.275 184.784L501.85 189.925H507.448Z" fill="black"/>
<path d="M531.719 152.036L537.056 147.078L541.817 153.74L556.909 147.078L560.695 153.36L546.07 160.811L541.213 156.008L535.862 159.473L531.719 152.036Z" fill="#263238"/>
<path opacity="0.2" d="M531.719 152.036L537.056 147.078L541.817 153.74L556.909 147.078L560.695 153.36L546.07 160.811L541.213 156.008L535.862 159.473L531.719 152.036Z" fill="white"/>
<path d="M514.5 168.586L530.607 150.881C532.688 150.843 534.688 150.044 536.246 148.627C538.633 146.318 541.885 136.092 541.089 135.43C540.293 134.768 530.689 133.951 529.784 135.106C528.878 136.261 524.899 146.599 524.899 146.599L507.64 160.459L514.5 168.586Z" fill="#E4897B"/>
<path d="M516.284 153.107L519.467 150.219L527.095 156.29L523.638 161.008L516.284 153.107Z" fill="#263238"/>
<path opacity="0.2" d="M516.284 153.107L519.467 150.219L527.095 156.29L523.638 161.008L516.284 153.107Z" fill="white"/>
<path d="M517.148 151.261L526.285 158.684C526.285 158.684 505.047 193.221 497.323 185.925C489.598 178.629 493.55 167.206 517.148 151.261Z" fill="#407BFF"/>
<path opacity="0.6" d="M517.148 151.261L526.285 158.684C526.285 158.684 505.047 193.221 497.323 185.925C489.598 178.629 493.55 167.206 517.148 151.261Z" fill="white"/>
<path d="M575.732 189.925L577.104 165.164C577.21 162.763 576.575 160.389 575.289 158.38C574.003 156.372 572.132 154.832 569.943 153.98L557.91 149.304C557.91 149.304 558.418 167.896 559.817 189.883L575.732 189.925Z" fill="#407BFF"/>
<path opacity="0.5" d="M575.732 189.925L577.104 165.164C577.21 162.763 576.575 160.389 575.289 158.38C574.003 156.372 572.132 154.832 569.943 153.98L557.91 149.304C557.91 149.304 558.418 167.896 559.817 189.883L575.732 189.925Z" fill="white"/>
<path d="M564.743 189.925L569.174 177.15L562.52 170.924L570.135 168.586C565.292 153.262 557.444 148.05 557.444 148.05C555.496 157.91 557.444 177.361 558.994 189.925H564.743Z" fill="#407BFF"/>
<path opacity="0.4" d="M564.743 189.925L569.174 177.15L562.52 170.924L570.135 168.586C565.292 153.262 557.444 148.05 557.444 148.05C555.496 157.91 557.444 177.361 558.994 189.925H564.743Z" fill="white"/>
<path d="M504.183 186.911C505.555 187.446 516.325 188.179 516.325 188.179L518.835 189.925H536.37L518.534 181.291C517.862 179.271 516.516 177.559 514.733 176.46C511.852 174.826 501.37 174.784 501.013 175.756C500.656 176.728 502.824 186.362 504.183 186.911Z" fill="#E4897B"/>
<path d="M530.855 189.925L532.474 186.939L525.806 183.939L523.432 189.925H530.855Z" fill="#263238"/>
<path opacity="0.2" d="M530.855 189.925L532.474 186.939L525.806 183.939L523.432 189.925H530.855Z" fill="white"/>
<path d="M567.116 189.925C575.074 177.15 580.672 161.6 574.168 157.079C574.168 157.079 569.174 155.67 548.553 187.968C548.553 187.968 546.289 192.954 529.345 185.151L527.136 189.94L567.116 189.925Z" fill="#407BFF"/>
<path opacity="0.6" d="M567.116 189.925C575.074 177.15 580.672 161.6 574.168 157.079C574.168 157.079 569.174 155.67 548.553 187.968C548.553 187.968 546.289 192.954 529.345 185.151L527.136 189.94L567.116 189.925Z" fill="white"/>
<path opacity="0.3" d="M475.632 192.193H361.358V294.987H475.632V192.193Z" fill="white"/>
<path d="M264.124 189.925C266.868 182.587 282.989 168.29 282.989 168.29V153.529C274.757 155.107 254.602 172.91 254.081 189.883L264.124 189.925Z" fill="#407BFF"/>
<path opacity="0.6" d="M264.124 189.925C265.496 186.432 269.763 181.376 273.92 177.023C278.544 172.234 282.989 168.305 282.989 168.305V153.529C274.757 155.107 254.589 172.91 254.081 189.883L264.124 189.925Z" fill="white"/>
<path opacity="0.2" d="M273.92 177.023C278.544 172.234 282.989 168.305 282.989 168.305V164.009C282.989 164.009 275.059 168.051 273.92 177.023Z" fill="black"/>
<path d="M341.052 189.925C343.11 176.939 345.168 166.234 346.059 161.389C346.206 160.644 346.063 159.87 345.66 159.233C345.258 158.595 344.628 158.146 343.905 157.98C340.956 157.318 337.91 156.755 334.85 156.276C321.011 154.284 307.047 153.342 293.073 153.459C286.871 153.459 282.988 153.642 282.988 153.642C280.162 164.037 278.475 176.981 277.5 189.996L341.052 189.925Z" fill="#407BFF"/>
<path opacity="0.7" d="M341.065 189.925L341.23 188.841C343.219 176.347 345.14 166.093 346.046 161.389C346.087 161.132 346.087 160.87 346.046 160.614C346.019 159.989 345.79 159.39 345.395 158.913C345 158.436 344.461 158.108 343.864 157.98C340.901 157.318 337.869 156.755 334.809 156.276C320.97 154.284 307.006 153.342 293.032 153.459C286.83 153.459 282.947 153.642 282.947 153.642C280.121 164.037 278.434 176.981 277.459 189.996L341.065 189.925Z" fill="white"/>
<path d="M305.298 170.122C323.134 172.065 335.084 156.459 335.084 156.459L334.851 156.276C321.011 154.284 307.048 153.342 293.073 153.459C293.073 153.459 288.518 168.29 305.298 170.122Z" fill="#407BFF"/>
<path d="M325.054 154.839C320.033 159.529 307.726 157.797 307.726 157.797C307.726 157.797 300.043 155.642 301.648 153.177C306.175 152.402 308.371 150.233 309.276 147.458C309.77 145.742 309.924 143.941 309.729 142.162C309.66 141.165 309.536 140.173 309.358 139.19L324.574 127.626C322.585 135.218 320.142 149.304 325.054 154.839Z" fill="#E4897B"/>
<path opacity="0.2" d="M321.048 134.979C320.444 144.346 312.939 146.937 309.262 147.458C309.756 145.742 309.91 143.941 309.715 142.162L321.048 134.979Z" fill="black"/>
<path d="M322.817 148.895L308.274 155.628L307.41 150.233L302.073 152.121C301.138 152.457 300.342 153.108 299.811 153.966C299.281 154.825 299.048 155.842 299.15 156.853L299.754 162.769L307.135 158.628L310.812 163.966L328.292 155.332L322.817 148.895Z" fill="#407BFF"/>
<path opacity="0.3" d="M322.817 148.895L308.274 155.628L307.41 150.233L302.073 152.121C301.138 152.457 300.342 153.108 299.811 153.966C299.281 154.825 299.048 155.842 299.15 156.853L299.754 162.769L307.135 158.628L310.812 163.966L328.292 155.332L322.817 148.895Z" fill="white"/>
<path d="M297.834 104.104C297.834 104.104 293.718 118.725 300.674 125.514C307.63 132.303 311.224 104.527 311.224 104.527L297.834 104.104Z" fill="#263238"/>
<path opacity="0.2" d="M297.834 104.104C297.834 104.104 293.718 118.725 300.674 125.514C307.63 132.303 311.224 104.527 311.224 104.527L297.834 104.104Z" fill="white"/>
<path d="M297.724 133.923C297.875 134.444 298.04 134.965 298.232 135.458C299.635 139.051 302.312 141.965 305.723 143.613C308.783 145.122 312.281 145.403 315.533 144.402C317.849 143.654 319.926 142.276 321.542 140.416C326.673 134.697 326.303 128.317 326.523 117.499C326.619 114.972 326.082 112.461 324.964 110.208C323.846 107.954 322.183 106.032 320.135 104.626C318.087 103.22 315.722 102.377 313.266 102.177C310.81 101.977 308.345 102.427 306.107 103.484C295.954 108.175 295.104 124.288 297.724 133.923Z" fill="#E4897B"/>
<path d="M310.662 121.133C310.744 121.992 310.264 122.739 309.702 122.753C309.139 122.767 308.659 122.077 308.618 121.204C308.577 120.33 309.029 119.584 309.578 119.57C310.127 119.556 310.621 120.246 310.662 121.133Z" fill="#263238"/>
<path d="M300.961 121.513C301.057 122.387 300.564 123.133 300.001 123.147C299.439 123.161 298.972 122.471 298.931 121.584C298.89 120.697 299.329 119.978 299.891 119.964C300.454 119.95 300.934 120.682 300.961 121.513Z" fill="#263238"/>
<path d="M304.062 121.837C303.139 124.57 301.851 127.159 300.234 129.528C300.837 129.929 301.516 130.192 302.227 130.299C302.937 130.406 303.661 130.354 304.35 130.148L304.062 121.837Z" fill="#DE5753"/>
<path d="M297.216 117.401C297.294 117.452 297.384 117.48 297.477 117.48C297.569 117.48 297.66 117.452 297.738 117.401C298.253 117.028 298.846 116.782 299.469 116.682C300.093 116.582 300.73 116.63 301.332 116.823C301.392 116.851 301.457 116.866 301.523 116.868C301.589 116.869 301.655 116.857 301.717 116.832C301.778 116.807 301.834 116.77 301.881 116.722C301.928 116.675 301.965 116.618 301.991 116.555C302.042 116.43 302.043 116.289 301.994 116.163C301.946 116.037 301.851 115.935 301.73 115.879C300.976 115.611 300.171 115.532 299.381 115.647C298.592 115.762 297.84 116.069 297.189 116.541C297.076 116.616 296.997 116.734 296.969 116.869C296.941 117.003 296.965 117.144 297.038 117.26C297.086 117.32 297.147 117.368 297.216 117.401Z" fill="#263238"/>
<path d="M312.432 117.091C312.532 117.08 312.627 117.041 312.707 116.978C312.797 116.879 312.848 116.748 312.848 116.612C312.848 116.476 312.797 116.345 312.707 116.246C312.09 115.72 311.359 115.355 310.576 115.181C309.792 115.007 308.98 115.029 308.207 115.246C308.082 115.29 307.98 115.383 307.921 115.504C307.862 115.625 307.852 115.765 307.891 115.893C307.938 116.022 308.031 116.127 308.151 116.188C308.271 116.248 308.408 116.258 308.536 116.217C309.151 116.073 309.79 116.075 310.403 116.224C311.017 116.373 311.589 116.665 312.076 117.077C312.19 117.122 312.315 117.127 312.432 117.091Z" fill="#263238"/>
<path d="M318.304 104.315L317.687 109.076C318.471 109.465 319.083 110.145 319.399 110.979C319.714 111.813 319.711 112.738 319.388 113.569C317.851 117.57 320.005 123.809 322.982 126.317C322.982 126.317 323.092 124.584 324.519 125.007C325.946 125.429 325.452 134.486 322.626 138.768C322.626 138.768 326.879 134.909 329.349 125.429C331.64 116.668 331.983 109.344 330.254 105.935L318.304 104.315Z" fill="#263238"/>
<path d="M305.956 135.824C305.893 135.845 305.826 135.845 305.764 135.824C305.689 135.77 305.638 135.689 305.62 135.597C305.602 135.505 305.619 135.41 305.668 135.331C306.781 133.632 308.459 132.405 310.387 131.88C310.432 131.87 310.479 131.869 310.524 131.878C310.57 131.887 310.613 131.905 310.652 131.931C310.69 131.957 310.723 131.991 310.748 132.031C310.773 132.071 310.791 132.115 310.799 132.162C310.815 132.251 310.797 132.344 310.749 132.42C310.7 132.496 310.625 132.55 310.538 132.57C308.788 133.066 307.266 134.184 306.244 135.725C306.206 135.763 306.16 135.791 306.111 135.808C306.061 135.825 306.008 135.83 305.956 135.824Z" fill="#263238"/>
<path opacity="0.1" d="M301.195 140.233C302.477 141.649 304.015 142.797 305.722 143.613C308.782 145.121 312.281 145.403 315.532 144.402C314.087 143.069 312.327 142.147 310.428 141.726C307.409 140.901 304.315 140.401 301.195 140.233Z" fill="black"/>
<path opacity="0.2" d="M318.304 104.315L317.687 109.076C318.471 109.465 319.083 110.145 319.399 110.979C319.714 111.813 319.711 112.738 319.388 113.569C317.851 117.57 320.005 123.809 322.982 126.317C322.982 126.317 323.092 124.584 324.519 125.007C325.946 125.429 325.452 134.486 322.626 138.768C322.626 138.768 326.879 134.909 329.349 125.429C331.64 116.668 331.983 109.344 330.254 105.935L318.304 104.315Z" fill="white"/>
<path d="M330.981 108.118C330.981 108.118 332.12 101.865 322.53 96.9769C312.94 92.0893 302.43 97.6671 296.023 93.4556C289.616 89.2441 289.382 106.555 303.075 108.499C312.354 109.603 321.734 109.475 330.981 108.118Z" fill="#263238"/>
<path opacity="0.3" d="M330.981 108.118C330.981 108.118 332.12 101.865 322.53 96.9769C312.94 92.0893 302.43 97.6671 296.023 93.4556C289.616 89.2441 289.382 106.555 303.075 108.499C312.354 109.603 321.734 109.475 330.981 108.118Z" fill="white"/>
<path d="M331.448 126.19C330.385 128.669 328.413 130.618 325.96 131.613C322.667 132.88 320.719 129.936 321.35 126.584C321.953 123.598 324.368 119.246 327.812 119.443C331.255 119.64 332.737 123.105 331.448 126.19Z" fill="#E4897B"/>
<path d="M315.162 161.051L313.707 153.107C313.707 153.107 316.726 150.177 316.369 147.473C316.012 144.768 302.649 140.289 300.234 140.106C297.82 139.923 298.766 149.839 299.494 151.656C300.221 153.473 308.274 155.642 308.274 155.642L309.276 164.023L315.162 161.051Z" fill="#E4897B"/>
<path opacity="0.2" d="M339.254 189.925C339.954 189.573 340.626 189.207 341.23 188.841C343.22 176.347 345.14 166.093 346.046 161.389C346.087 161.132 346.087 160.87 346.046 160.614C337.375 169.685 323.874 184.855 325.466 189.925H339.254Z" fill="black"/>
<path d="M334.548 189.925C344.522 180.742 353.193 168.079 347.06 159.53C341.682 152.008 327.852 179.249 323.64 181.122C319.428 182.996 315.779 158.008 315.779 158.008L307.547 160.515C307.547 160.515 309.056 178.516 313.282 189.925H334.548Z" fill="#407BFF"/>
<path opacity="0.6" d="M334.548 189.925C344.522 180.742 353.193 168.079 347.06 159.53C341.682 152.008 327.852 179.249 323.64 181.122C319.428 182.996 315.779 158.008 315.779 158.008L307.547 160.515C307.547 160.515 309.056 178.516 313.282 189.925H334.548Z" fill="white"/>
<path d="M396.728 189.925C399.623 186.925 401.502 184.812 401.502 184.812L399.911 159.839C395.328 162.347 381.595 181.164 374.378 189.925H396.728Z" fill="#407BFF"/>
<path opacity="0.5" d="M396.728 189.925C399.623 186.925 401.502 184.812 401.502 184.812L399.911 159.839C395.328 162.347 381.595 181.164 374.378 189.925H396.728Z" fill="white"/>
<path opacity="0.2" d="M396.714 189.925C399.622 186.925 401.502 184.812 401.502 184.812L401.132 178.883L399.252 173.136C395.026 177.638 392.708 183.674 392.804 189.925H396.714Z" fill="black"/>
<path d="M444.817 189.925C445.489 187.446 446.189 184.812 447.122 181.939C448.055 179.066 448.892 176.178 449.934 172.953C450.712 170.521 451.567 167.938 452.5 165.206C446.931 163.379 441.24 161.967 435.473 160.98C429.399 159.869 423.255 159.206 417.089 158.994C409.117 158.994 399.939 159.839 399.939 159.839C399.939 159.839 398.567 160.163 397.812 168.854C397.414 173.234 397.016 179.995 396.989 189.982L444.817 189.925Z" fill="#407BFF"/>
<path opacity="0.5" d="M444.817 189.925C445.489 187.446 446.189 184.812 447.122 181.939C448.055 179.066 448.892 176.178 449.934 172.953C450.712 170.521 451.567 167.938 452.5 165.206C446.931 163.379 441.24 161.967 435.473 160.98C429.399 159.869 423.255 159.206 417.089 158.994C409.117 158.994 399.939 159.839 399.939 159.839C399.939 159.839 398.567 160.163 397.812 168.854C397.414 173.234 397.016 179.995 396.989 189.982L444.817 189.925Z" fill="white"/>
<path d="M419.324 189.925L430.575 169.248L417.568 176.728L410.022 167.009L412.78 189.925H419.324Z" fill="#263238"/>
<path d="M431.014 158.36C438.45 160.163 440.7 166.276 439.877 171.84L434.458 169.981C428.212 172.301 422.353 175.599 417.088 179.756C417.088 179.756 412.972 172.009 409.048 169.474L403.478 170.15C403.478 170.15 412.163 153.825 431.014 158.36Z" fill="#263238"/>
<path opacity="0.1" d="M431.014 158.36C438.45 160.163 440.7 166.276 439.877 171.84L434.458 169.981C428.212 172.301 422.353 175.599 417.088 179.756C417.088 179.756 412.972 172.009 409.048 169.474L403.478 170.15C403.478 170.15 412.163 153.825 431.014 158.36Z" fill="white"/>
<path d="M417.527 160.797C417.928 160.579 418.345 160.395 418.776 160.248C419.723 159.487 420.875 157.628 420.82 153.205C420.777 151.44 420.616 149.68 420.34 147.937L432.51 145.613C432.51 145.613 428.394 154.064 431.824 160.248C433.003 160.797 433.717 161.572 433.593 162.586C432.674 169.798 417.568 176.784 417.568 176.784C417.568 176.784 410.228 164.938 417.527 160.797Z" fill="#EEC1BB"/>
<path opacity="0.2" d="M420.34 147.895C420.616 149.638 420.777 151.398 420.82 153.163C429.052 153.163 432.509 145.571 432.509 145.571L420.34 147.895Z" fill="black"/>
<path d="M425.773 106.682C425.773 106.682 411.504 104.822 408.87 116.541C408.117 119.887 408.304 123.383 409.409 126.624C410.514 129.865 412.491 132.718 415.112 134.852L425.773 106.682Z" fill="#263238"/>
<path d="M427.063 112.964C416.485 112.372 412.78 117.992 411.408 129.134C409.693 143.064 412.176 153.163 425.567 150.923C443.732 147.895 444.624 113.95 427.063 112.964Z" fill="#EEC1BB"/>
<path d="M418.267 128.908C417.338 130.48 416.228 131.932 414.961 133.232C415.245 133.706 415.652 134.089 416.137 134.338C416.622 134.587 417.165 134.692 417.705 134.641L418.267 128.908Z" fill="#D4827D"/>
<path d="M424.798 128.387C424.73 129.274 425.142 130.035 425.718 130.077C426.294 130.12 426.815 129.443 426.884 128.556C426.953 127.669 426.541 126.908 425.965 126.852C425.388 126.795 424.867 127.5 424.798 128.387Z" fill="#263238"/>
<path d="M426.198 126.922L424.374 126.007C424.374 126.007 425.183 127.711 426.198 126.922Z" fill="#263238"/>
<path d="M414.015 127.331C414.015 128.218 414.372 128.979 414.948 129.035C415.524 129.091 416.046 128.387 416.114 127.5C416.183 126.612 415.771 125.852 415.195 125.809C414.619 125.767 414.084 126.443 414.015 127.331Z" fill="#263238"/>
<path d="M415.428 125.866L413.603 124.95C413.603 124.95 414.413 126.669 415.428 125.866Z" fill="#263238"/>
<path d="M429.792 123.274C429.72 123.274 429.648 123.256 429.584 123.222C429.519 123.188 429.464 123.138 429.422 123.077C428.906 122.492 428.267 122.035 427.554 121.74C426.841 121.445 426.073 121.319 425.306 121.373C425.184 121.377 425.064 121.335 424.97 121.255C424.876 121.174 424.815 121.06 424.798 120.936C424.791 120.807 424.832 120.681 424.914 120.584C424.996 120.486 425.112 120.426 425.237 120.415C426.159 120.347 427.083 120.502 427.935 120.867C428.788 121.231 429.546 121.795 430.149 122.513C430.221 122.617 430.252 122.745 430.234 122.871C430.216 122.997 430.151 123.111 430.053 123.19C429.974 123.239 429.885 123.268 429.792 123.274Z" fill="#263238"/>
<path d="M413.37 121.133C413.289 121.132 413.21 121.109 413.14 121.067C413.07 121.025 413.012 120.966 412.972 120.894C412.94 120.839 412.918 120.779 412.909 120.716C412.9 120.653 412.903 120.589 412.919 120.527C412.934 120.466 412.961 120.408 412.999 120.357C413.036 120.306 413.083 120.264 413.136 120.232C413.819 119.764 414.594 119.459 415.406 119.34C416.218 119.22 417.046 119.289 417.829 119.541C417.884 119.567 417.935 119.604 417.977 119.65C418.019 119.696 418.052 119.75 418.073 119.809C418.095 119.868 418.105 119.93 418.103 119.993C418.101 120.056 418.087 120.118 418.062 120.175C418.041 120.235 418.008 120.289 417.966 120.335C417.923 120.38 417.872 120.416 417.815 120.44C417.758 120.464 417.697 120.475 417.635 120.473C417.574 120.471 417.514 120.456 417.458 120.429C416.812 120.235 416.132 120.191 415.468 120.3C414.803 120.41 414.171 120.67 413.617 121.063C413.541 121.105 413.456 121.129 413.37 121.133Z" fill="#263238"/>
<path d="M437.668 131.908C437.668 131.908 433.209 122.711 434.32 115.865C434.32 115.865 413.836 105.893 411.628 127.683C411.628 127.683 410.626 108.175 428.819 108.766C447.011 109.358 445.488 136.655 435.679 144.261C435.638 144.261 440.412 137.655 437.668 131.908Z" fill="#263238"/>
<path d="M423.947 105.837C423.947 105.837 415.263 103.639 412.793 106.006C410.324 108.372 427.885 125.035 437.078 126.711C437.078 126.711 440.192 137.148 437.722 142.036C437.722 142.036 448.067 138.331 448.547 122.161C449.028 105.991 432.495 100.005 423.947 105.837Z" fill="#263238"/>
<path d="M435.802 134.106C435.885 133.486 436.085 132.889 436.393 132.349C436.7 131.809 437.108 131.336 437.594 130.958C438.079 130.58 438.633 130.304 439.222 130.146C439.811 129.987 440.426 129.95 441.029 130.035C444.281 130.584 445.474 137.585 437.229 138.782C436.049 138.951 435.459 137.74 435.802 134.106Z" fill="#EEC1BB"/>
<path d="M440.412 112.231C440.412 112.231 444.02 102.808 453.693 103.47C463.366 104.132 464.847 119.64 459.757 131.091C454.667 142.543 458.125 146.247 458.125 146.247C458.125 146.247 452.705 145.571 452.705 135.303C452.409 137.477 452.299 139.673 452.376 141.867C452.376 141.867 448.768 136.641 452.211 126.711C455.655 116.781 444.665 121.33 444.665 121.33L440.412 112.231Z" fill="#263238"/>
<path d="M430.52 127.021C430.47 127.033 430.419 127.033 430.369 127.021C418.021 122.457 413.233 107.175 413.178 107.02C413.143 106.896 413.157 106.764 413.216 106.651C413.275 106.538 413.374 106.453 413.493 106.414C413.552 106.394 413.614 106.387 413.675 106.392C413.737 106.397 413.796 106.414 413.851 106.443C413.906 106.472 413.955 106.511 413.995 106.559C414.035 106.608 414.065 106.664 414.083 106.724C414.083 106.879 418.748 121.711 430.685 126.119C430.802 126.164 430.897 126.253 430.951 126.369C431.005 126.485 431.013 126.618 430.973 126.739C430.934 126.828 430.87 126.902 430.789 126.952C430.708 127.002 430.614 127.026 430.52 127.021Z" fill="#263238"/>
<path d="M420.189 141.514H419.832C419.771 141.515 419.709 141.502 419.653 141.477C419.596 141.451 419.545 141.415 419.502 141.368C419.46 141.322 419.427 141.268 419.406 141.208C419.385 141.148 419.376 141.085 419.38 141.021C419.387 140.893 419.442 140.773 419.535 140.686C419.627 140.599 419.749 140.553 419.874 140.557C422.005 140.551 424.05 139.698 425.581 138.176C425.669 138.087 425.787 138.037 425.91 138.037C426.034 138.037 426.152 138.087 426.24 138.176C426.327 138.266 426.376 138.388 426.376 138.514C426.376 138.641 426.327 138.763 426.24 138.852C424.622 140.491 422.461 141.442 420.189 141.514Z" fill="#263238"/>
<path d="M421.712 132.866C421.131 132.911 420.551 132.776 420.046 132.478C419.542 132.179 419.137 131.732 418.884 131.193C418.632 130.655 418.543 130.051 418.63 129.46C418.716 128.869 418.975 128.318 419.371 127.88C419.767 127.442 420.282 127.137 420.85 127.005C421.418 126.872 422.011 126.918 422.553 127.137C423.094 127.356 423.559 127.738 423.886 128.232C424.214 128.726 424.388 129.311 424.387 129.908C424.405 130.284 424.35 130.66 424.225 131.013C424.1 131.367 423.907 131.691 423.657 131.967C423.408 132.242 423.107 132.464 422.773 132.619C422.439 132.773 422.078 132.857 421.712 132.866ZM421.712 127.655C421.267 127.609 420.82 127.703 420.429 127.923C420.038 128.144 419.721 128.481 419.52 128.89C419.319 129.299 419.243 129.761 419.303 130.215C419.363 130.67 419.556 131.094 419.855 131.434C420.155 131.773 420.548 132.012 420.982 132.118C421.417 132.223 421.872 132.192 422.288 132.026C422.705 131.861 423.063 131.57 423.315 131.192C423.567 130.814 423.702 130.366 423.701 129.908C423.727 129.339 423.532 128.782 423.16 128.36C422.787 127.937 422.266 127.684 421.712 127.655Z" fill="#263238"/>
<path d="M413.425 132.401C412.847 132.432 412.273 132.285 411.777 131.977C411.282 131.67 410.887 131.218 410.645 130.678C410.403 130.138 410.323 129.537 410.417 128.95C410.511 128.364 410.775 127.82 411.173 127.389C411.571 126.958 412.086 126.659 412.651 126.531C413.216 126.403 413.806 126.452 414.344 126.672C414.882 126.892 415.343 127.272 415.668 127.763C415.994 128.255 416.168 128.835 416.169 129.429C416.189 129.812 416.134 130.195 416.005 130.555C415.876 130.915 415.677 131.244 415.42 131.522C415.164 131.8 414.854 132.022 414.511 132.173C414.168 132.324 413.798 132.402 413.425 132.401ZM413.425 127.176C412.981 127.133 412.535 127.229 412.145 127.452C411.756 127.674 411.441 128.013 411.242 128.422C411.043 128.832 410.97 129.294 411.031 129.747C411.093 130.2 411.287 130.624 411.587 130.962C411.888 131.3 412.281 131.537 412.715 131.641C413.149 131.746 413.604 131.713 414.019 131.547C414.435 131.381 414.792 131.09 415.043 130.712C415.295 130.334 415.429 129.887 415.428 129.429C415.439 128.867 415.236 128.323 414.862 127.912C414.488 127.502 413.972 127.258 413.425 127.232V127.176Z" fill="#263238"/>
<path d="M419.379 130.26C419.313 130.264 419.248 130.247 419.192 130.211C419.136 130.176 419.091 130.125 419.064 130.063C418.942 129.799 418.768 129.564 418.553 129.372C418.338 129.181 418.087 129.037 417.815 128.95C417.473 128.93 417.131 128.992 416.817 129.131C416.502 129.271 416.224 129.484 416.004 129.753C415.938 129.819 415.849 129.855 415.757 129.855C415.665 129.855 415.577 129.819 415.51 129.753C415.447 129.687 415.412 129.599 415.412 129.507C415.412 129.415 415.447 129.326 415.51 129.26C415.809 128.913 416.183 128.644 416.603 128.475C417.023 128.306 417.476 128.242 417.925 128.288C418.304 128.397 418.655 128.588 418.956 128.848C419.256 129.108 419.499 129.431 419.667 129.796C419.688 129.837 419.7 129.882 419.703 129.928C419.705 129.975 419.699 130.021 419.683 130.065C419.668 130.108 419.644 130.148 419.613 130.182C419.582 130.215 419.544 130.242 419.503 130.26H419.379Z" fill="#263238"/>
<path d="M424.044 130.26C423.955 130.26 423.87 130.225 423.806 130.162C423.742 130.099 423.704 130.013 423.701 129.922C423.7 129.83 423.734 129.741 423.795 129.673C423.856 129.605 423.94 129.563 424.03 129.556C424.579 129.556 437.187 129.148 438.738 129.218C438.83 129.225 438.916 129.269 438.977 129.34C439.039 129.411 439.071 129.503 439.067 129.598C439.06 129.689 439.019 129.774 438.952 129.834C438.886 129.895 438.799 129.926 438.71 129.922C437.174 129.852 424.195 130.26 424.057 130.26H424.044Z" fill="#263238"/>
<path d="M462.611 189.925C457.617 176.46 452.5 165.206 452.5 165.206C452.5 165.206 444.144 177.685 443.39 189.925H462.611Z" fill="#407BFF"/>
<path opacity="0.5" d="M462.611 189.925C457.617 176.46 452.5 165.206 452.5 165.206C452.5 165.206 444.144 177.685 443.39 189.925H462.611Z" fill="white"/>
<path d="M465.739 295.001C462.995 287.283 460.251 280.747 460.251 280.747L448.781 291.057L450.784 295.001H465.739Z" fill="#E4897B"/>
<path d="M384.75 295.001C387.494 291.593 389.429 289.086 389.429 289.086L378.22 279.536C378.22 279.536 372.732 288.226 368.259 295.03L384.75 295.001Z" fill="#E4897B"/>
<path d="M387.494 295.001L394.148 290.212L391.569 258.408C383.09 259.816 370.77 285.17 370.77 285.17L380.374 295.029L387.494 295.001Z" fill="#407BFF"/>
<path opacity="0.2" d="M380.387 295.001H387.494L392.269 291.564L394.148 290.156L391.569 258.337C383.09 259.83 370.77 285.099 370.77 285.099L379.249 293.734L380.387 295.001Z" fill="white"/>
<path d="M382.472 295.001L370.769 282.395L368.752 285.86L378.123 295.001H382.472Z" fill="#407BFF"/>
<path opacity="0.2" d="M387.494 295.001L392.269 291.565L390.005 277.775C390.005 277.775 381.142 283.522 379.249 293.832L380.387 295.001H387.494Z" fill="black"/>
<path d="M449.523 295.001C452.349 277.085 455.107 263.45 455.107 263.45C427.955 256.718 391.501 258.408 391.501 258.408C388.647 268.859 386.959 281.888 386.013 295.03L449.523 295.001Z" fill="#407BFF"/>
<path opacity="0.2" d="M449.523 295.001C449.715 293.748 449.907 292.508 450.099 291.297C452.719 275.24 455.107 263.45 455.107 263.45C427.955 256.718 391.501 258.408 391.501 258.408C388.647 268.859 386.973 281.888 386.013 295.03L449.523 295.001Z" fill="white"/>
<path opacity="0.2" d="M449.522 295.001C449.714 293.748 449.906 292.508 450.098 291.297L446.092 287.438C445.122 289.853 444.502 292.401 444.253 295.001H449.522Z" fill="black"/>
<path d="M406.963 295.001H411.271C411.741 286.939 412.856 278.931 414.605 271.056L422.22 264.662L416.224 262.676L410.736 262.986L412.204 270.38C412.204 270.38 409.597 281.705 406.963 295.001Z" fill="#263238"/>
<path d="M433.552 259.676C428.531 264.366 416.21 262.633 416.21 262.633C416.21 262.633 408.527 260.464 410.146 257.999C414.674 257.239 416.869 255.07 417.761 252.365C418.259 250.645 418.418 248.839 418.227 247.055C418.154 246.063 418.026 245.075 417.843 244.097L433.072 232.519C431.083 240.083 428.641 254.14 433.552 259.676Z" fill="#E4897B"/>
<path opacity="0.2" d="M429.559 239.801C428.956 249.182 421.451 251.76 417.774 252.295C418.273 250.574 418.431 248.769 418.24 246.985L429.559 239.801Z" fill="black"/>
<path d="M431.316 253.717L416.772 260.464L415.922 255.056L410.571 256.985C409.638 257.322 408.842 257.973 408.315 258.832C407.787 259.691 407.557 260.708 407.662 261.718L408.266 267.648L415.647 263.422L419.324 268.76L436.79 260.126L431.316 253.717Z" fill="#407BFF"/>
<path opacity="0.3" d="M431.316 253.717L416.772 260.464L415.922 255.056L410.571 256.985C409.638 257.322 408.842 257.973 408.315 258.832C407.787 259.691 407.557 260.708 407.662 261.718L408.266 267.648L415.647 263.422L419.324 268.76L436.79 260.126L431.316 253.717Z" fill="white"/>
<path d="M401.873 210.743C401.873 210.743 399.609 225.786 407.361 231.604C415.113 237.421 415.209 209.405 415.209 209.405L401.873 210.743Z" fill="#263238"/>
<path d="M429.93 243.675C428.29 246.147 425.907 248 423.144 248.949C420.381 249.898 417.391 249.891 414.632 248.929C411.053 247.761 408.038 245.245 406.194 241.886C405.938 241.429 405.704 240.959 405.495 240.477C401.694 231.266 400.514 215.124 410.008 209.18C412.101 207.859 414.488 207.108 416.942 206.997C419.397 206.887 421.838 207.421 424.036 208.549C426.233 209.677 428.114 211.362 429.501 213.444C430.888 215.526 431.734 217.937 431.96 220.448C433.14 230.998 434.307 237.28 429.93 243.675Z" fill="#E4897B"/>
<path d="M416.718 225.955C416.923 226.815 416.539 227.603 415.977 227.702C415.414 227.801 414.865 227.167 414.714 226.294C414.563 225.42 414.906 224.646 415.455 224.561C416.004 224.477 416.567 225.082 416.718 225.955Z" fill="#263238"/>
<path d="M407.155 227.603C407.361 228.463 406.963 229.251 406.414 229.35C405.865 229.449 405.289 228.801 405.152 227.941C405.015 227.082 405.344 226.293 405.893 226.195C406.441 226.096 407.018 226.772 407.155 227.603Z" fill="#263238"/>
<path d="M410.228 227.505C409.654 230.334 408.703 233.069 407.402 235.632C408.042 235.947 408.741 236.118 409.451 236.133C410.161 236.147 410.866 236.005 411.518 235.717L410.228 227.505Z" fill="#DE5753"/>
<path d="M402.929 224.026C403.015 224.052 403.106 224.057 403.195 224.04C403.283 224.023 403.366 223.984 403.437 223.927C403.903 223.49 404.461 223.168 405.068 222.987C405.674 222.806 406.313 222.771 406.935 222.885C406.999 222.904 407.066 222.91 407.133 222.901C407.199 222.893 407.263 222.871 407.32 222.837C407.378 222.803 407.428 222.757 407.468 222.702C407.508 222.648 407.537 222.585 407.553 222.519C407.587 222.388 407.57 222.249 407.506 222.131C407.442 222.012 407.336 221.924 407.21 221.885C406.427 221.718 405.617 221.744 404.847 221.962C404.076 222.18 403.367 222.583 402.778 223.138C402.684 223.236 402.632 223.368 402.632 223.505C402.632 223.642 402.684 223.773 402.778 223.871C402.819 223.932 402.87 223.984 402.929 224.026Z" fill="#263238"/>
<path d="M417.98 221.702C418.078 221.681 418.168 221.632 418.24 221.561C418.308 221.442 418.328 221.302 418.298 221.168C418.267 221.034 418.188 220.918 418.076 220.842C417.399 220.403 416.629 220.138 415.831 220.07C415.034 220.001 414.232 220.131 413.493 220.448C413.374 220.509 413.283 220.615 413.239 220.744C413.195 220.873 413.203 221.015 413.26 221.138C413.321 221.258 413.426 221.349 413.551 221.391C413.677 221.433 413.814 221.423 413.932 221.364C414.524 221.138 415.158 221.054 415.786 221.12C416.414 221.186 417.019 221.4 417.554 221.744C417.624 221.77 417.698 221.78 417.772 221.772C417.845 221.765 417.916 221.741 417.98 221.702Z" fill="#263238"/>
<path d="M422.206 208.264V213.067C423.029 213.352 423.718 213.945 424.135 214.729C424.552 215.512 424.667 216.427 424.456 217.293C423.427 221.448 426.349 227.364 429.601 229.463C429.601 229.463 429.505 227.716 430.973 227.956C432.441 228.195 433.099 237.224 430.822 241.858C430.822 241.858 434.554 237.463 435.83 227.772C436.996 218.772 436.433 211.476 434.293 208.321L422.206 208.264Z" fill="#263238"/>
<path d="M437.984 228.181C437.225 230.794 435.488 232.992 433.154 234.294C430.053 235.998 427.735 233.322 427.954 229.913C428.188 226.885 430.04 222.251 433.442 221.983C436.845 221.716 438.875 225.012 437.984 228.181Z" fill="#E4897B"/>
<path d="M412.726 238.35C413.459 239.497 414.11 240.698 414.674 241.942L415.36 241.745C418.433 240.829 419.558 239.351 419.874 238.012C420.02 237.349 420.02 236.661 419.874 235.998C419.786 235.623 419.647 235.263 419.462 234.928C417.816 236.364 415.888 237.421 413.809 238.027C413.137 238.252 412.726 238.35 412.726 238.35Z" fill="#263238"/>
<path d="M413.768 238.041L414.371 239.083C417.266 238.21 419.173 237.195 419.859 236.012C419.771 235.637 419.633 235.277 419.448 234.942C417.793 236.382 415.856 237.439 413.768 238.041Z" fill="white"/>
<path d="M415.36 241.745C418.433 240.829 419.558 239.35 419.874 238.012C418.711 238.38 417.623 238.963 416.663 239.731C416.035 240.246 415.579 240.95 415.36 241.745Z" fill="#DE5753"/>
<path d="M428.462 225.801L427.09 224.969C427.09 224.969 427.955 230.73 426.171 232.35C426.171 232.35 419.997 233.026 417.843 233.618C416.366 234.207 415.143 235.322 414.399 236.759C414.399 236.759 409.556 235.702 407.457 239.435C405.714 237.839 404.337 235.867 403.423 233.66C403.423 233.66 403.588 244.196 409.337 249.802C415.085 255.408 424.429 252.619 428.819 248.238C433.209 243.858 428.462 225.801 428.462 225.801ZM424.346 242.407C423.976 242.971 423.468 243.426 422.873 243.727C422.279 244.028 421.618 244.163 420.956 244.121C420.295 244.078 419.655 243.858 419.102 243.483C418.549 243.109 418.101 242.592 417.802 241.984L415.881 243.069C415.881 243.069 417.994 244.9 416.389 246.59C414.783 248.281 409.817 247.675 409.309 242.815C408.802 237.956 414.797 237.407 414.797 237.407C415.545 236.632 416.436 236.019 417.419 235.605C418.402 235.191 419.456 234.985 420.518 234.998C421.345 235.033 422.148 235.288 422.85 235.738C423.551 236.188 424.126 236.818 424.518 237.566C424.91 238.314 425.105 239.153 425.084 240.002C425.064 240.851 424.829 241.68 424.401 242.407H424.346Z" fill="#263238"/>
<path d="M422.192 213.067C422.192 213.067 398.868 221.237 401.612 205.095C401.612 205.095 414.193 197.489 425.156 199.616C436.118 201.743 435.267 213.42 435.267 213.42L422.192 213.067Z" fill="#263238"/>
<path d="M468.744 295.001C467.372 290.41 459.675 265.901 455.106 263.45C452.407 266.063 450.239 269.199 448.727 272.676C445.612 279.184 444.94 292.227 444.94 292.227L446.957 295.044L468.744 295.001Z" fill="#407BFF"/>
<path opacity="0.2" d="M468.744 295.001C467.372 290.41 459.675 265.901 455.106 263.45C452.407 266.063 450.239 269.199 448.727 272.676C445.612 279.184 444.94 292.227 444.94 292.227L446.957 295.044L468.744 295.001Z" fill="white"/>
<path opacity="0.6" d="M592.539 192.193H478.265V294.987H592.539V192.193Z" fill="white"/>
<path d="M506.94 295.001C511.262 290.691 514.281 287.283 514.281 287.283L512.689 262.324C507.585 265.141 491.08 288.212 484.947 295.001H506.94Z" fill="#263238"/>
<path opacity="0.3" d="M506.94 295.001C511.262 290.691 514.281 287.283 514.281 287.283L512.689 262.324C507.585 265.141 491.08 288.212 484.947 295.001H506.94Z" fill="white"/>
<path opacity="0.2" d="M506.941 295.001C511.262 290.705 514.281 287.283 514.281 287.283L513.91 281.367L512.086 275.606C509.699 278.155 507.898 281.22 506.813 284.575C505.728 287.931 505.387 291.493 505.816 295.001H506.941Z" fill="black"/>
<path d="M558.678 229.899C557.498 234.547 563.974 247.393 561.354 270.747C558.733 294.1 533.763 292.691 522.54 284.832C511.317 276.972 513.265 234.773 517.121 226.434C520.976 218.096 558.678 229.899 558.678 229.899Z" fill="#263238"/>
<path d="M556.908 295.001C557.732 291.804 558.719 288.297 559.899 284.409C560.741 281.592 561.678 278.601 562.712 275.437C563.499 273.042 564.349 270.437 565.264 267.62C559.693 265.799 554.003 264.387 548.237 263.394C542.152 262.296 536 261.632 529.825 261.408C521.854 261.408 512.675 262.267 512.675 262.267C512.675 262.267 511.372 262.577 510.562 271.268C510.123 276.029 509.684 283.578 509.739 294.945L556.908 295.001Z" fill="#263238"/>
<path opacity="0.3" d="M556.908 295.001C557.732 291.804 558.719 288.297 559.899 284.409C560.741 281.592 561.678 278.601 562.712 275.437C563.499 273.042 564.349 270.437 565.264 267.62C559.693 265.799 554.003 264.387 548.237 263.394C542.152 262.296 536 261.632 529.825 261.408C521.854 261.408 512.675 262.267 512.675 262.267C512.675 262.267 511.372 262.577 510.562 271.268C510.123 276.029 509.684 283.578 509.739 294.945L556.908 295.001Z" fill="white"/>
<path d="M537.207 260.253C542.132 260.563 550.008 260.507 555.043 268.591H545.713L550.79 274.958C550.79 274.958 534.449 278.958 529.345 289.959C529.345 289.959 522.019 276.916 518.04 273.888C520.467 271.407 523.241 269.313 526.272 267.676C523.631 266.518 520.869 265.677 518.04 265.169C518.04 265.169 530.553 259.845 537.207 260.253Z" fill="white"/>
<path d="M546.372 265C546.372 265 533.722 279.648 529.812 286.719C528.034 278.983 528.218 270.909 530.347 263.267L546.372 265Z" fill="#407BFF"/>
<path opacity="0.6" d="M546.372 265C546.372 265 533.722 279.648 529.812 286.719C528.034 278.983 528.218 270.909 530.347 263.267L546.372 265Z" fill="white"/>
<path d="M533.228 270.761C543.339 269.437 546.371 265 546.371 265C539.95 258.788 545.287 248.097 545.287 248.097L533.118 250.436C533.395 252.174 533.555 253.929 533.598 255.689C533.68 263.267 530.346 263.338 530.346 263.338C528.22 267.38 533.228 270.761 533.228 270.761Z" fill="#EEC1BB"/>
<path opacity="0.2" d="M533.118 250.365C533.395 252.103 533.555 253.858 533.598 255.619C541.83 255.619 545.288 248.027 545.288 248.027L533.118 250.365Z" fill="black"/>
<path d="M539.841 215.504C529.263 214.913 525.559 220.533 524.187 231.674C522.472 245.604 524.955 255.704 538.346 253.464C556.511 250.351 557.403 216.42 539.841 215.504Z" fill="#EEC1BB"/>
<path d="M531.046 231.378C530.12 232.957 529.01 234.414 527.74 235.716C528.024 236.19 528.431 236.573 528.916 236.822C529.401 237.071 529.944 237.176 530.484 237.125L531.046 231.378Z" fill="#D4827D"/>
<path d="M537.577 230.857C537.509 231.759 537.92 232.505 538.497 232.561C539.073 232.618 539.594 231.914 539.663 231.026C539.731 230.139 539.32 229.378 538.744 229.336C538.167 229.294 537.646 229.97 537.577 230.857Z" fill="#263238"/>
<path d="M538.977 229.392L537.152 228.491C537.152 228.491 537.961 230.195 538.977 229.392Z" fill="#263238"/>
<path d="M526.848 229.815C526.78 230.702 527.191 231.463 527.768 231.505C528.344 231.547 528.865 230.871 528.934 229.984C529.002 229.096 528.591 228.322 528.014 228.28C527.438 228.237 526.848 228.913 526.848 229.815Z" fill="#263238"/>
<path d="M528.22 228.35L526.395 227.434C526.395 227.434 527.191 229.139 528.22 228.35Z" fill="#263238"/>
<path d="M542.585 225.758C542.508 225.76 542.433 225.742 542.365 225.705C542.298 225.668 542.241 225.613 542.201 225.547C541.686 224.961 541.047 224.505 540.334 224.212C539.62 223.919 538.851 223.797 538.085 223.857C537.96 223.861 537.839 223.817 537.745 223.733C537.651 223.65 537.591 223.533 537.577 223.406C537.569 223.277 537.611 223.151 537.693 223.054C537.775 222.956 537.891 222.896 538.016 222.885C538.937 222.819 539.861 222.974 540.714 223.338C541.566 223.702 542.324 224.266 542.928 224.984C543 225.087 543.03 225.215 543.012 225.341C542.995 225.467 542.93 225.581 542.832 225.66C542.759 225.714 542.674 225.748 542.585 225.758Z" fill="#263238"/>
<path d="M526.148 223.617C526.067 223.616 525.988 223.594 525.918 223.552C525.848 223.51 525.79 223.45 525.75 223.378C525.718 223.323 525.697 223.263 525.688 223.2C525.679 223.137 525.682 223.073 525.697 223.011C525.712 222.95 525.74 222.892 525.777 222.841C525.814 222.79 525.861 222.748 525.915 222.716C526.594 222.241 527.37 221.933 528.184 221.816C528.998 221.698 529.827 221.775 530.607 222.04C530.72 222.092 530.809 222.188 530.855 222.306C530.901 222.424 530.9 222.556 530.854 222.674C530.803 222.789 530.71 222.881 530.595 222.928C530.48 222.975 530.351 222.975 530.236 222.927C529.592 222.725 528.912 222.676 528.246 222.783C527.581 222.89 526.948 223.151 526.395 223.547C526.319 223.59 526.234 223.614 526.148 223.617Z" fill="#263238"/>
<path d="M531.773 241.463C532.204 242.714 532.548 243.994 532.802 245.294C533.031 245.309 533.26 245.309 533.488 245.294C536.589 245.154 537.975 244.041 538.579 242.844C538.851 242.249 538.987 241.599 538.976 240.942C538.978 240.571 538.932 240.202 538.839 239.844C536.97 240.806 534.92 241.345 532.83 241.421L531.773 241.463Z" fill="#263238"/>
<path d="M532.83 241.393L533.159 242.52C536.068 242.365 538.112 241.872 538.976 240.914C538.978 240.543 538.931 240.174 538.839 239.815C536.969 240.778 534.92 241.316 532.83 241.393Z" fill="white"/>
<path d="M533.489 245.266C536.589 245.125 537.975 244.013 538.579 242.815C537.399 242.892 536.243 243.183 535.163 243.675C534.456 244.012 533.87 244.569 533.489 245.266Z" fill="#DE5753"/>
<path d="M550.433 234.378C550.433 234.378 545.96 225.181 547.071 218.335C547.071 218.335 526.587 208.377 524.392 230.153C524.392 230.153 523.377 210.645 541.57 211.236C559.762 211.828 558.239 239.125 548.43 246.731C548.416 246.731 553.19 240.139 550.433 234.378Z" fill="#263238"/>
<path d="M548.58 236.632C548.663 236.012 548.864 235.415 549.171 234.875C549.479 234.335 549.887 233.863 550.372 233.485C550.858 233.107 551.411 232.83 552 232.672C552.59 232.514 553.204 232.476 553.808 232.561C557.059 233.111 558.253 240.111 550.007 241.308C548.8 241.435 548.237 240.224 548.58 236.632Z" fill="#EEC1BB"/>
<path d="M544.259 217.265C543.542 226.244 545.705 235.217 550.419 242.815C556.373 252.041 549.541 260.112 549.541 260.112C549.541 260.112 563.659 255.112 557.498 234.547C557.498 234.547 564.139 216.166 551.077 211.222C551.077 211.222 551.009 205.588 539.196 206.687C527.383 207.786 517.889 218.138 516.078 231.378C514.267 244.618 521.003 259.394 521.003 259.394C521.003 259.394 513.855 212.462 544.259 217.265Z" fill="#263238"/>
<path d="M544.917 217.476C544.139 220.621 543.843 223.872 544.039 227.11C544.225 230.39 544.735 233.642 545.562 236.815C546.385 240.011 547.578 243.094 549.116 245.999C550.622 248.929 552.651 251.542 555.097 253.703C552.564 251.615 550.433 249.06 548.814 246.168C547.161 243.286 545.848 240.213 544.903 237.012C543.941 233.802 543.306 230.498 543.01 227.153C542.688 223.761 542.887 220.339 543.6 217.011L544.917 217.476Z" fill="#263238"/>
<path opacity="0.2" d="M556.908 295.001C557.087 294.325 557.265 293.593 557.457 292.945C556.181 288.353 554.864 291.945 554.864 291.945C554.651 292.954 554.496 293.974 554.397 295.001H556.908Z" fill="black"/>
<path d="M574.759 295.001C569.984 281.93 565.264 267.62 565.264 267.62C555.468 271.592 554.933 292.17 554.933 292.17L556.47 294.987L574.759 295.001Z" fill="#263238"/>
<path opacity="0.3" d="M574.759 295.001C569.984 281.93 565.264 267.62 565.264 267.62C555.468 271.592 554.933 292.17 554.933 292.17L556.47 294.987L574.759 295.001Z" fill="white"/>
<path opacity="0.5" d="M358.737 192.193H244.463V294.987H358.737V192.193Z" fill="white"/>
<path d="M303.171 208.912L291.701 220.702H289.327V208.912H303.171Z" fill="white"/>
<path d="M305.572 212.434V220.702H297.519L305.572 212.434Z" fill="white"/>
<path d="M311.361 219.561L307.012 218.152V211.645L311.361 210.236V219.561Z" fill="white"/>
<path d="M300.344 231.505C296.579 231.506 292.93 230.166 290.02 227.715C287.109 225.263 285.116 221.851 284.382 218.06C283.647 214.269 284.216 210.334 285.99 206.925C287.765 203.516 290.637 200.845 294.115 199.366C297.594 197.887 301.465 197.692 305.067 198.815C308.67 199.938 311.782 202.308 313.873 205.523C315.964 208.737 316.904 212.597 316.534 216.443C316.163 220.29 314.505 223.885 311.842 226.617C310.335 228.172 308.543 229.404 306.57 230.243C304.596 231.082 302.48 231.511 300.344 231.505ZM300.344 199.517C297.893 199.516 295.479 200.135 293.316 201.32C291.153 202.505 289.309 204.22 287.946 206.312C286.584 208.404 285.745 210.81 285.505 213.314C285.264 215.819 285.63 218.346 286.568 220.671C287.507 222.996 288.99 225.047 290.886 226.643C292.782 228.239 295.032 229.329 297.436 229.819C299.841 230.308 302.326 230.181 304.672 229.448C307.017 228.715 309.15 227.399 310.881 225.617C312.961 223.477 314.376 220.753 314.949 217.788C315.521 214.823 315.225 211.75 314.097 208.957C312.97 206.165 311.062 203.778 308.614 202.098C306.167 200.418 303.289 199.52 300.344 199.517Z" fill="white"/>
<path d="M310.877 203.01L288.845 225.629L289.815 226.625L311.847 204.006L310.877 203.01Z" fill="white"/>
<path d="M114.905 482.842L148.903 479.419V430.36H162.376V479.405L196.525 482.842C198.161 483.01 199.678 483.796 200.781 485.048C201.884 486.3 202.495 487.929 202.493 489.617V494.857H108.923V489.617C108.925 487.927 109.538 486.299 110.643 485.047C111.749 483.795 113.267 483.009 114.905 482.842Z" fill="#263238"/>
<path opacity="0.3" d="M114.905 482.842L148.903 479.419V430.36H162.376V479.405L196.525 482.842C198.161 483.01 199.678 483.796 200.781 485.048C201.884 486.3 202.495 487.929 202.493 489.617V494.857H108.923V489.617C108.925 487.927 109.538 486.299 110.643 485.047C111.749 483.795 113.267 483.009 114.905 482.842Z" fill="white"/>
<path d="M190.09 501.35C190.09 503.138 190.607 504.887 191.575 506.374C192.543 507.861 193.918 509.02 195.528 509.704C197.137 510.389 198.908 510.568 200.617 510.219C202.326 509.87 203.895 509.009 205.127 507.744C206.359 506.479 207.198 504.868 207.538 503.114C207.877 501.36 207.703 499.542 207.036 497.889C206.37 496.237 205.241 494.825 203.792 493.831C202.344 492.838 200.641 492.307 198.899 492.307C196.562 492.307 194.322 493.26 192.67 494.956C191.018 496.652 190.09 498.952 190.09 501.35Z" fill="#407BFF"/>
<path d="M121.34 501.35C121.342 503.141 120.828 504.893 119.861 506.384C118.893 507.875 117.517 509.038 115.906 509.726C114.295 510.414 112.522 510.596 110.81 510.25C109.098 509.903 107.525 509.043 106.289 507.778C105.054 506.513 104.211 504.901 103.868 503.145C103.525 501.388 103.697 499.567 104.362 497.911C105.027 496.255 106.156 494.839 107.605 493.841C109.054 492.844 110.759 492.31 112.504 492.307C113.663 492.305 114.81 492.538 115.881 492.991C116.952 493.445 117.926 494.11 118.746 494.95C119.567 495.79 120.218 496.787 120.663 497.885C121.108 498.983 121.338 500.161 121.34 501.35Z" fill="#407BFF"/>
<path d="M159.001 440.896L152.223 440.896C150.72 440.896 149.279 440.283 148.217 439.192C147.154 438.101 146.557 436.622 146.557 435.079V397.232H164.708V435.079C164.709 435.846 164.561 436.606 164.273 437.315C163.986 438.023 163.565 438.667 163.034 439.207C162.504 439.748 161.874 440.176 161.182 440.466C160.49 440.755 159.749 440.902 159.001 440.896Z" fill="#263238"/>
<path opacity="0.5" d="M159.001 440.896L152.223 440.896C150.72 440.896 149.279 440.283 148.217 439.192C147.154 438.101 146.557 436.622 146.557 435.079V397.232H164.708V435.079C164.709 435.846 164.561 436.606 164.273 437.315C163.986 438.023 163.565 438.667 163.034 439.207C162.504 439.748 161.874 440.176 161.182 440.466C160.49 440.755 159.749 440.902 159.001 440.896Z" fill="white"/>
<path d="M123.48 320.51C123.48 320.51 120.859 385.936 138.572 397.204H118.348C118.348 397.204 102.653 374.921 107.084 320.51H123.48Z" fill="#263238"/>
<path opacity="0.5" d="M123.48 320.51C123.48 320.51 120.859 385.936 138.572 397.204H118.348C118.348 397.204 102.653 374.921 107.084 320.51H123.48Z" fill="white"/>
<path d="M118.307 388.048H195.372C197.192 388.048 198.937 388.79 200.223 390.111C201.51 391.432 202.232 393.223 202.232 395.091V402.218H111.447V395.091C111.447 393.223 112.17 391.432 113.457 390.111C114.743 388.79 116.488 388.048 118.307 388.048Z" fill="#407BFF"/>
<path d="M203.248 395.133H110.418C108.895 395.133 107.661 396.401 107.661 397.964V399.387C107.661 400.95 108.895 402.218 110.418 402.218H203.248C204.771 402.218 206.006 400.95 206.006 399.387V397.964C206.006 396.401 204.771 395.133 203.248 395.133Z" fill="#407BFF"/>
<path opacity="0.6" d="M203.248 395.133H110.418C108.895 395.133 107.661 396.401 107.661 397.964V399.387C107.661 400.95 108.895 402.218 110.418 402.218H203.248C204.771 402.218 206.006 400.95 206.006 399.387V397.964C206.006 396.401 204.771 395.133 203.248 395.133Z" fill="white"/>
<path d="M104.903 333.806H131.767C142.815 333.806 151.771 324.612 151.771 313.27V305.974C151.771 294.632 142.815 285.437 131.767 285.437H104.903C93.8552 285.437 84.8992 294.632 84.8992 305.974V313.27C84.8992 324.612 93.8552 333.806 104.903 333.806Z" fill="#407BFF"/>
<path d="M190.214 275.395C193.85 276.93 214.471 303.931 215.006 309.622C215.678 316.523 208.86 317.833 201.437 316.045C194.015 314.256 199.64 306.776 199.64 306.776L188.211 290.353L190.214 275.395Z" fill="#263238"/>
<path d="M186.922 342.638H160.854C160.854 342.638 165.875 307.284 166.698 306.776C167.521 306.269 185.742 305.016 185.742 305.016V324.735L186.922 342.638Z" fill="#263238"/>
<path d="M157.204 265.803C158.15 265.605 168.097 261.38 173.503 265.648C178.909 269.915 185 284.127 175.314 289.283C165.628 294.438 153.266 291.748 151.784 283.987C150.302 276.226 157.204 265.803 157.204 265.803Z" fill="#263238"/>
<path d="M149.452 233.928C149.452 233.928 142.921 249.421 147.49 255.168C152.058 260.915 181.858 265.479 187.031 260.084C192.203 254.689 185.426 233.322 185.426 233.322L149.452 233.928Z" fill="#263238"/>
<path d="M266.594 461.123L258.828 463.038L254.904 452.038L251.337 442.037L260.173 438.164L263.575 450.305L266.594 461.123Z" fill="#E4897B"/>
<path opacity="0.2" d="M263.575 450.305L254.904 452.038L251.337 442.037L260.173 438.164L263.575 450.305Z" fill="black"/>
<path d="M262.793 444.502L252.036 448.601C252.036 448.601 223.32 374.907 217.421 374.653C211.521 374.4 151.428 402.739 136.377 387.02C121.326 371.301 143.086 333.412 143.086 333.412C143.086 333.412 179.307 328.116 182.037 336.51C182.712 338.984 183.225 341.502 183.574 344.046C183.985 346.61 184.26 348.765 184.26 348.765C185.385 348.483 221.743 338.905 236.066 348.765C250.651 358.878 262.793 444.502 262.793 444.502Z" fill="#263238"/>
<path opacity="0.2" d="M262.793 444.502L252.036 448.601C252.036 448.601 223.32 374.907 217.421 374.653C211.521 374.4 151.428 402.739 136.377 387.02C121.326 371.301 143.086 333.412 143.086 333.412C143.086 333.412 179.307 328.116 182.037 336.51C182.712 338.984 183.225 341.502 183.574 344.046C183.985 346.61 184.26 348.765 184.26 348.765C185.385 348.483 221.743 338.905 236.066 348.765C250.651 358.878 262.793 444.502 262.793 444.502Z" fill="white"/>
<path d="M200.888 492.561L193.15 490.518L194.646 479.138L196.018 468.686L205.581 469.574L203.097 481.743L200.888 492.561Z" fill="#E4897B"/>
<path opacity="0.2" d="M203.042 481.983L194.591 479.349L195.99 468.799L205.567 469.63L203.042 481.983Z" fill="black"/>
<path d="M247.591 444.516L263.26 439.051L263.932 445.643L252.05 449.953L247.591 444.516Z" fill="#263238"/>
<path d="M162.39 390.795C162.39 390.795 164.832 390.865 202.823 389.048C202.823 389.048 197.157 437.797 194.056 474.306L205.416 476.292C205.416 476.292 232.554 398.133 232.266 385.71C231.978 373.287 218.148 369.653 218.148 369.653C218.148 369.653 191.037 385.71 162.39 390.795Z" fill="#263238"/>
<path opacity="0.1" d="M162.39 390.795C162.39 390.795 164.832 390.865 202.823 389.048C202.823 389.048 197.157 437.797 194.056 474.306L205.416 476.292C205.416 476.292 232.554 398.133 232.266 385.71C231.978 373.287 218.148 369.653 218.148 369.653C218.148 369.653 191.037 385.71 162.39 390.795Z" fill="white"/>
<path d="M192.396 470.771L208.009 472.588L204.991 478.87L192.354 477.208L192.396 470.771Z" fill="#263238"/>
<path opacity="0.3" d="M184.26 348.765L163.076 353.3C163.076 353.3 174.793 346.666 183.574 344.046C183.985 346.61 184.26 348.765 184.26 348.765Z" fill="black"/>
<path d="M143.964 327.637L143.086 333.426L182.037 336.51L183.066 329.665L143.964 327.637Z" fill="#263238"/>
<path opacity="0.2" d="M143.964 327.637L143.086 333.426L182.037 336.51L183.066 329.665L143.964 327.637Z" fill="black"/>
<path d="M157.25 327.254L155.325 327.051L154.318 337.111L156.242 337.314L157.25 327.254Z" fill="#263238"/>
<path d="M173.928 329.669L165.398 329.106L164.982 335.754L173.512 336.317L173.928 329.669Z" fill="white"/>
<path d="M181.177 328.337L179.252 328.133L178.245 338.194L180.169 338.397L181.177 328.337Z" fill="#263238"/>
<path opacity="0.2" d="M157.25 327.254L155.325 327.051L154.318 337.111L156.242 337.314L157.25 327.254Z" fill="white"/>
<path opacity="0.2" d="M181.177 328.337L179.252 328.133L178.245 338.194L180.169 338.397L181.177 328.337Z" fill="white"/>
<path d="M187.663 274.521C181.157 270.274 173.708 267.792 166.012 267.31C153.514 266.648 142.277 273.718 142.277 273.718L143.937 327.637L183.039 329.665C183.039 329.665 195.401 293.691 187.663 274.521Z" fill="#407BFF"/>
<path d="M185.755 238.491C185.755 238.491 191.394 212.448 167.919 215.025C138.462 218.265 149.644 255.872 164.255 253.52C178.867 251.168 185.755 238.491 185.755 238.491Z" fill="#263238"/>
<path opacity="0.2" d="M180.912 273.38L181.612 284.733L173.133 276.93C173.133 276.93 172.557 282.564 170.595 291.931C169.978 287.054 168.636 282.304 166.616 277.845L158.603 286.212L153.362 273.38C153.362 273.38 169.415 261.436 180.912 273.38Z" fill="black"/>
<path d="M170.224 282.592L166.012 271.916L158.233 268.338C165.093 263.464 161.649 252.562 161.649 252.562L172.749 256.577C172.236 258.165 171.837 259.789 171.555 261.436C170.403 268.479 173.517 269.098 173.517 269.098L171.377 272.282L170.224 282.592Z" fill="#E4897B"/>
<path opacity="0.2" d="M172.735 256.577C172.222 258.165 171.824 259.789 171.541 261.436C166.231 259.253 161.635 252.562 161.635 252.562L172.735 256.577Z" fill="black"/>
<path d="M173.119 222.547C183.148 223.434 185.906 229.223 185.755 239.886C185.563 253.224 181.913 262.422 169.62 258.45C152.923 253.112 156.477 221.138 173.119 222.547Z" fill="#E4897B"/>
<path d="M179.32 238.745C179.996 240.352 180.857 241.87 181.886 243.266C181.558 243.668 181.127 243.968 180.642 244.132C180.158 244.296 179.638 244.318 179.142 244.196L179.32 238.745Z" fill="#DE5753"/>
<path d="M173.256 237.364C173.256 238.21 172.721 238.872 172.172 238.773C171.623 238.674 171.212 238.026 171.267 237.181C171.322 236.336 171.802 235.674 172.351 235.702C172.899 235.731 173.311 236.519 173.256 237.364Z" fill="#263238"/>
<path d="M172.131 235.787L173.969 235.181C173.969 235.181 172.981 236.632 172.131 235.787Z" fill="#263238"/>
<path d="M183.533 237.843C183.533 238.688 182.984 239.35 182.435 239.252C181.887 239.153 181.489 238.505 181.53 237.66C181.571 236.815 182.079 236.153 182.627 236.181C183.176 236.209 183.574 236.998 183.533 237.843Z" fill="#263238"/>
<path d="M182.393 236.266L184.232 235.66C184.232 235.66 183.244 237.153 182.393 236.266Z" fill="#263238"/>
<path d="M169.277 231.928C169.214 231.928 169.151 231.916 169.092 231.892C169.033 231.868 168.98 231.832 168.934 231.787C168.887 231.741 168.849 231.685 168.823 231.623C168.797 231.561 168.783 231.495 168.783 231.427C168.783 231.36 168.797 231.294 168.823 231.232C168.849 231.17 168.887 231.114 168.934 231.068C169.6 230.467 170.393 230.034 171.251 229.805C172.109 229.575 173.007 229.554 173.874 229.744C174.002 229.775 174.113 229.855 174.185 229.968C174.256 230.081 174.283 230.218 174.258 230.35C174.245 230.416 174.219 230.478 174.182 230.534C174.145 230.59 174.098 230.637 174.043 230.674C173.988 230.711 173.927 230.736 173.862 230.748C173.798 230.76 173.732 230.759 173.668 230.744C172.966 230.597 172.24 230.613 171.544 230.791C170.849 230.968 170.201 231.304 169.648 231.773C169.599 231.822 169.541 231.861 169.478 231.888C169.414 231.915 169.346 231.928 169.277 231.928Z" fill="#263238"/>
<path d="M185 232.167C184.886 232.164 184.776 232.125 184.685 232.054C184.222 231.613 183.668 231.284 183.065 231.092C182.462 230.899 181.825 230.848 181.2 230.942C181.074 230.976 180.94 230.959 180.827 230.893C180.714 230.827 180.631 230.718 180.596 230.589C180.562 230.459 180.578 230.32 180.642 230.201C180.707 230.083 180.813 229.995 180.939 229.956C181.714 229.819 182.51 229.864 183.266 230.089C184.021 230.313 184.718 230.711 185.302 231.251C185.354 231.293 185.397 231.344 185.429 231.403C185.462 231.461 185.482 231.526 185.49 231.593C185.497 231.66 185.492 231.727 185.474 231.792C185.456 231.857 185.425 231.917 185.384 231.97C185.34 232.031 185.282 232.081 185.215 232.115C185.148 232.149 185.075 232.167 185 232.167Z" fill="#263238"/>
<path d="M160.716 238.914C160.716 238.914 166.108 230.885 165.944 224.293C165.944 224.293 186.524 217.716 185.755 238.491C185.755 238.491 189.227 220.293 172.035 218.363C154.844 216.434 152.745 242.308 161.059 250.76C161.005 250.816 157.369 243.956 160.716 238.914Z" fill="#263238"/>
<path d="M162.17 241.238C162.179 240.639 162.073 240.044 161.857 239.487C161.64 238.93 161.319 238.423 160.911 237.995C160.502 237.567 160.016 237.226 159.478 236.992C158.941 236.758 158.364 236.636 157.78 236.632C154.652 236.716 152.621 243.125 160.208 245.379C161.306 245.759 162.02 244.703 162.17 241.238Z" fill="#E4897B"/>
<path d="M179.732 248.393C179.13 249.495 178.603 250.639 178.154 251.816L177.523 251.675C174.642 251.013 173.531 249.745 173.16 248.52C172.985 247.921 172.957 247.287 173.078 246.675C173.132 246.329 173.234 245.992 173.38 245.675C174.978 246.888 176.813 247.733 178.758 248.154C179.32 248.323 179.732 248.393 179.732 248.393Z" fill="#263238"/>
<path d="M178.731 248.154L178.237 249.154C175.493 248.534 173.709 247.745 173.051 246.675C173.105 246.329 173.207 245.992 173.353 245.675C174.951 246.888 176.786 247.733 178.731 248.154Z" fill="white"/>
<path d="M177.496 251.675C174.615 251.013 173.503 249.745 173.133 248.52C174.22 248.803 175.251 249.28 176.179 249.928C176.78 250.36 177.239 250.969 177.496 251.675Z" fill="#DE5753"/>
<path d="M172.872 223.307C172.872 223.307 167.384 239.872 157.053 238.801C146.722 237.731 164.503 217.673 164.503 217.673C164.503 217.673 182.01 212.603 189.597 222.575C197.184 232.547 185.783 238.576 185.783 238.576C185.783 238.576 187.484 225.434 172.872 223.307Z" fill="#263238"/>
<path d="M164.544 237.449C164.476 237.448 164.409 237.426 164.353 237.386C164.296 237.346 164.253 237.289 164.229 237.224C164.197 237.134 164.201 237.035 164.239 236.948C164.278 236.861 164.348 236.793 164.434 236.759C172.666 233.561 172.502 222.209 172.502 222.096C172.502 222.003 172.538 221.913 172.602 221.847C172.666 221.781 172.754 221.744 172.845 221.744C172.889 221.742 172.933 221.749 172.975 221.765C173.016 221.782 173.054 221.806 173.086 221.838C173.118 221.869 173.144 221.907 173.161 221.949C173.179 221.991 173.188 222.036 173.188 222.082C173.188 222.195 173.352 234.04 164.668 237.421L164.544 237.449Z" fill="#263238"/>
<path d="M161.224 264.169L165.998 271.915L160.016 282.592L155.681 268.887L161.224 264.169Z" fill="#407BFF"/>
<path d="M171.362 265.648V272.282L178.428 280.296L176.123 268.789L171.362 265.648Z" fill="#407BFF"/>
<path d="M279.435 476.588C278.259 476.033 276.995 475.704 275.703 475.616C275.703 475.616 271.217 472.912 266.772 462.39H261.778C260.933 462.398 260.112 462.673 259.424 463.177C258.737 463.681 258.218 464.39 257.936 465.207C257.856 465.434 257.81 465.671 257.799 465.912C257.851 467.153 257.98 468.391 258.183 469.616C258.919 473.692 259.895 477.718 261.105 481.673L261.942 481.462L260.406 473.799C259.898 471.208 262.56 473.715 263.794 476.335C265.029 478.954 266.923 481.602 272.438 480.307C278.873 478.729 281.452 477.785 279.435 476.588Z" fill="#263238"/>
<path d="M265.866 459.63C265.866 459.63 272.109 473.025 275.703 475.616C275.703 475.616 270.888 478.56 265.866 471.996C259.377 463.545 257.799 465.883 257.799 465.883C257.93 464.42 258.192 462.973 258.581 461.559C259.555 458.827 265.866 459.63 265.866 459.63Z" fill="#E4897B"/>
<path d="M210.725 508.477C209.71 507.651 208.557 507.021 207.322 506.618C207.322 506.618 203.591 502.899 201.697 491.589L196.854 490.349C196.033 490.153 195.172 490.221 194.389 490.544C193.607 490.866 192.939 491.428 192.477 492.152C192.342 492.354 192.24 492.578 192.176 492.814C191.94 494.028 191.779 495.256 191.695 496.491C191.447 500.632 191.447 504.786 191.695 508.928H192.56L192.834 501.125C192.944 498.477 194.947 501.561 195.578 504.406C196.209 507.252 197.403 510.28 203.056 510.365C209.682 510.463 212.413 510.167 210.725 508.477Z" fill="#263238"/>
<path d="M201.465 488.758C201.465 488.758 204.428 503.308 207.323 506.688C207.323 506.688 201.959 508.379 198.597 500.787C194.262 490.927 192.176 492.885 192.176 492.885C192.638 491.493 193.226 490.149 193.932 488.87C195.51 486.42 201.465 488.758 201.465 488.758Z" fill="#E4897B"/>
<path d="M154.419 268.253C154.419 268.253 166.588 305.368 149.438 347.511L132.782 345.286L143.086 321.341L140.836 273.113L154.419 268.253Z" fill="#263238"/>
<path d="M177.496 269.577C177.496 269.577 183.066 278.789 182.394 306.776L185.755 346.398L188.993 344.046L186.345 324.721C186.345 324.721 193.383 290.705 190.214 275.423L177.496 269.577Z" fill="#263238"/>
<path d="M173.503 265.648C173.503 265.648 182.956 270.746 187.786 277.719L184.26 281.057L188.993 288.099L182.394 306.706C182.394 306.706 178.813 271.845 173.503 265.648Z" fill="#263238"/>
<path opacity="0.2" d="M173.503 265.648C173.503 265.648 182.956 270.746 187.786 277.719L184.26 281.057L188.993 288.099L182.394 306.706C182.394 306.706 178.813 271.845 173.503 265.648Z" fill="white"/>
<path d="M157.204 265.802C157.204 265.802 161.539 291.156 158.219 308.777L147.847 284.649L153.788 278.789L145.871 272.986C149.04 269.702 152.924 267.239 157.204 265.802Z" fill="#263238"/>
<path opacity="0.2" d="M157.204 265.802C157.204 265.802 161.539 291.156 158.219 308.777L147.847 284.649L153.788 278.789L145.871 272.986C149.04 269.702 152.924 267.239 157.204 265.802Z" fill="white"/>
<path d="M169.483 310.481L183.519 311.495C184.655 310.725 185.894 310.128 187.196 309.72C188.911 309.298 198.885 308.185 200.696 308.903C202.507 309.622 204.126 315.692 203.962 316.946C203.797 318.2 188.719 318.622 188.239 318.664C187.758 318.707 186.043 317.073 186.043 317.073L169.483 316.918V310.481Z" fill="#E4897B"/>
<path d="M140.835 273.056C131.698 278.69 126.717 309.044 132.782 313.791C138.846 318.538 180.514 318.664 180.514 318.664L181.886 309.622C181.886 309.622 146.09 305.945 144.265 302.382C142.441 298.818 143.085 284.733 143.085 284.733L140.835 273.056Z" fill="#263238"/>
<path d="M302.444 510.407H309.674L322.667 324.721H313.077L302.444 510.407Z" fill="#263238"/>
<path opacity="0.7" d="M302.444 510.407H309.674L322.036 333.947L322.667 325.031H313.077L312.555 333.947L302.444 510.407Z" fill="white"/>
<path opacity="0.2" d="M312.555 333.51H322.036L322.667 325.031H313.077L312.555 333.51Z" fill="black"/>
<path d="M249.388 510.407H256.619L257.799 324.721H248.208L249.388 510.407Z" fill="#263238"/>
<path opacity="0.7" d="M248.195 325.031L248.387 354.976L249.375 510.407H256.619L257.607 354.976L257.799 325.031H248.195Z" fill="white"/>
<path opacity="0.2" d="M248.195 325.031L248.387 355.314H257.607L257.799 325.031H248.195Z" fill="black"/>
<path d="M172.625 510.407H179.855L192.848 324.721H183.258L172.625 510.407Z" fill="#263238"/>
<path opacity="0.7" d="M172.625 510.407H179.855L192.217 333.947L192.848 325.031H183.258L182.737 333.947L172.625 510.407Z" fill="white"/>
<path opacity="0.2" d="M182.736 333.51H192.217L192.848 325.031H183.258L182.736 333.51Z" fill="black"/>
<path d="M385.162 510.407H392.392L381.759 324.721H372.169L385.162 510.407Z" fill="#263238"/>
<path opacity="0.7" d="M372.169 325.031L372.8 333.947L385.162 510.407H392.378L382.281 333.947L381.759 325.031H372.169Z" fill="white"/>
<path opacity="0.2" d="M381.759 325.031H372.169L372.8 333.51H382.281L381.759 325.031Z" fill="black"/>
<path d="M386.396 329.383L178.621 329.383C177.835 329.383 177.081 329.063 176.525 328.492C175.969 327.922 175.657 327.148 175.657 326.341V320.087H389.401V326.341C389.401 326.744 389.323 327.143 389.171 327.515C389.02 327.887 388.798 328.224 388.518 328.507C388.239 328.79 387.907 329.014 387.543 329.164C387.179 329.314 386.789 329.389 386.396 329.383Z" fill="#407BFF"/>
<path opacity="0.6" d="M386.396 329.383L178.621 329.383C177.835 329.383 177.081 329.063 176.525 328.492C175.969 327.922 175.657 327.148 175.657 326.341V320.087H389.401V326.341C389.401 326.744 389.323 327.143 389.171 327.515C389.02 327.887 388.798 328.224 388.518 328.507C388.239 328.79 387.907 329.014 387.543 329.164C387.179 329.314 386.789 329.389 386.396 329.383Z" fill="white"/>
<path opacity="0.2" d="M175.657 324.735H389.374V320.087H175.657V324.735Z" fill="black"/>
<path d="M171.171 321.284H393.846C394.523 321.284 395.172 321.008 395.651 320.517C396.129 320.026 396.398 319.359 396.398 318.664C396.395 317.971 396.124 317.306 395.647 316.816C395.169 316.325 394.522 316.048 393.846 316.045H171.171C170.494 316.045 169.845 316.321 169.366 316.812C168.888 317.303 168.619 317.97 168.619 318.664C168.619 319.359 168.888 320.026 169.366 320.517C169.845 321.008 170.494 321.284 171.171 321.284Z" fill="#407BFF"/>
<path opacity="0.6" d="M171.171 321.284H393.846C394.523 321.284 395.172 321.008 395.651 320.517C396.129 320.026 396.398 319.359 396.398 318.664C396.395 317.971 396.124 317.306 395.647 316.816C395.169 316.325 394.522 316.048 393.846 316.045H171.171C170.494 316.045 169.845 316.321 169.366 316.812C168.888 317.303 168.619 317.97 168.619 318.664C168.619 319.359 168.888 320.026 169.366 320.517C169.845 321.008 170.494 321.284 171.171 321.284Z" fill="white"/>
<path d="M302.526 316.045L301.36 311.537H253.505L231.47 313.791L230.62 316.045H302.526Z" fill="#263238"/>
<path opacity="0.4" d="M253.504 311.537V316.045H302.526L301.36 311.537H253.504Z" fill="black"/>
<path d="M263.122 289.902C263.057 290.45 263.108 291.006 263.27 291.533C263.432 292.059 263.703 292.543 264.063 292.953C264.423 293.363 264.865 293.689 265.358 293.908C265.851 294.128 266.385 294.237 266.923 294.226H340.256C341.403 294.202 342.503 293.75 343.349 292.954C344.194 292.158 344.729 291.073 344.852 289.902L349.201 241.717C349.262 241.17 349.208 240.616 349.044 240.091C348.88 239.567 348.609 239.084 348.25 238.676C347.891 238.267 347.451 237.941 346.96 237.72C346.469 237.499 345.937 237.387 345.401 237.393H272.068C270.919 237.41 269.816 237.861 268.969 238.658C268.122 239.455 267.589 240.543 267.471 241.717L263.122 289.902Z" fill="#263238"/>
<path opacity="0.4" d="M267.17 294.227H340.256C341.403 294.203 342.503 293.75 343.349 292.954C344.195 292.159 344.729 291.074 344.852 289.902L349.202 241.717C349.254 241.245 349.222 240.768 349.106 240.308H276.033C274.886 240.332 273.786 240.784 272.94 241.58C272.094 242.376 271.56 243.461 271.437 244.632L267.087 292.818C267.038 293.289 267.066 293.765 267.17 294.227Z" fill="black"/>
<path d="M317.549 264.676H302.375L306.422 309.255L282.439 312.946V316.045H332.943V312.946L322.598 309.255L317.549 264.676Z" fill="#263238"/>
<path opacity="0.1" d="M302.375 264.676L313.612 315.34L322.598 315.073L317.549 264.676H302.375Z" fill="white"/>
<path d="M310.469 234.111H307.547V239.336H310.469V234.111Z" fill="#263238"/>
<path d="M307.548 233.914H304.022C303.663 233.176 303.488 232.358 303.514 231.533C303.475 230.712 303.65 229.895 304.022 229.167H307.548V233.914Z" fill="#263238"/>
<path d="M313.57 231.336C313.57 232.2 313.321 233.044 312.854 233.762C312.386 234.48 311.722 235.039 310.945 235.37C310.168 235.7 309.312 235.787 308.487 235.618C307.662 235.45 306.905 235.034 306.31 234.423C305.715 233.813 305.31 233.035 305.146 232.188C304.982 231.341 305.066 230.463 305.388 229.665C305.71 228.867 306.255 228.185 306.954 227.705C307.654 227.226 308.476 226.97 309.317 226.97C309.876 226.968 310.43 227.079 310.947 227.298C311.464 227.517 311.933 227.838 312.329 228.244C312.724 228.65 313.037 229.132 313.25 229.663C313.463 230.193 313.572 230.762 313.57 231.336Z" fill="#263238"/>
<path opacity="0.1" d="M313.57 231.336C313.57 232.2 313.321 233.044 312.854 233.762C312.386 234.48 311.722 235.039 310.945 235.37C310.168 235.7 309.312 235.787 308.487 235.618C307.662 235.45 306.905 235.034 306.31 234.423C305.715 233.813 305.31 233.035 305.146 232.188C304.982 231.341 305.066 230.463 305.388 229.665C305.71 228.867 306.255 228.185 306.954 227.705C307.654 227.226 308.476 226.97 309.317 226.97C309.876 226.968 310.43 227.079 310.947 227.298C311.464 227.517 311.933 227.838 312.329 228.244C312.724 228.65 313.037 229.132 313.25 229.663C313.463 230.193 313.572 230.762 313.57 231.336Z" fill="white"/>
<path d="M361.151 282.395V316.045H344.811C344.923 304.354 346.523 292.729 349.571 281.465C349.769 280.747 350.189 280.115 350.769 279.665C351.348 279.215 352.055 278.972 352.782 278.972H357.817C358.255 278.972 358.688 279.061 359.093 279.233C359.497 279.405 359.865 279.657 360.175 279.975C360.484 280.292 360.73 280.67 360.897 281.085C361.065 281.5 361.151 281.945 361.151 282.395Z" fill="#263238"/>
<path opacity="0.4" d="M361.152 282.395V316.045H352.92V283.649C352.92 282.412 353.398 281.226 354.25 280.352C355.102 279.477 356.257 278.986 357.461 278.986H357.763C358.204 278.979 358.643 279.061 359.053 279.229C359.463 279.397 359.836 279.647 360.151 279.964C360.466 280.281 360.717 280.659 360.889 281.076C361.061 281.494 361.15 281.942 361.152 282.395Z" fill="black"/>
<path d="M256.88 282.395V316.045H240.539C240.651 304.354 242.252 292.729 245.3 281.465C245.497 280.747 245.918 280.115 246.497 279.665C247.077 279.215 247.784 278.972 248.51 278.972H253.546C253.983 278.972 254.417 279.061 254.821 279.233C255.226 279.405 255.593 279.657 255.903 279.975C256.213 280.292 256.458 280.67 256.626 281.085C256.793 281.5 256.88 281.945 256.88 282.395Z" fill="#263238"/>
<path opacity="0.4" d="M256.879 282.395V316.045H248.647V283.649C248.647 282.412 249.126 281.226 249.978 280.352C250.829 279.477 251.984 278.986 253.189 278.986H253.491C253.932 278.979 254.37 279.061 254.78 279.229C255.19 279.397 255.564 279.647 255.879 279.964C256.194 280.281 256.445 280.659 256.617 281.076C256.788 281.494 256.878 281.942 256.879 282.395Z" fill="black"/>
</svg>
